<svg width="74" height="255" viewBox="0 0 74 255" fill="none" xmlns="http://www.w3.org/2000/svg">
<g clip-path="url(#clip0_5_1023)">
<path d="M56.09 53.28C55.05 51.88 51.46 50.9 47.54 50.37C47.54 50.37 44.88 53.07 28.38 50.72C24.18 51.38 20.4 52.45 19.09 53.81C17.17 55.8 18.53 65.11 17.51 74.65C15.54 93.18 12.25 116.52 12.25 116.52C12.25 116.52 24.2 117.77 37.99 117.77C50.37 117.77 61.73 115.97 61.73 115.97C61.73 115.97 57.83 90.7 56.21 72.19C55.37 62.63 57.83 55.64 56.09 53.28Z" fill="#D8DDE0"/>
<path d="M28.84 245.81H20.54V238.11H28.84V245.81Z" fill="#C2C5C7"/>
<path d="M20.2896 240.74C20.2896 240.74 10.2296 249.13 3.21968 249.46C-0.830319 249.64 -1.30032 257.74 15.7696 253.69C18.1996 253.12 19.9196 251.82 19.9196 251.82L19.9596 253.11L28.8396 252.92V243.7C28.8396 243.7 23.3996 244.47 20.2896 240.74Z" fill="#313241"/>
<path d="M19.9297 252.23L19.9597 253.11L28.8396 252.92V252.11C26.2696 252.1 22.4997 252.13 19.9297 252.23Z" fill="#21212F"/>
<path d="M43.5703 245.81H51.8703V238.11H43.5703V245.81Z" fill="#C2C5C7"/>
<path d="M52.1203 240.74C52.1203 240.74 62.1803 249.13 69.1903 249.46C73.2403 249.64 73.7103 257.74 56.6403 253.69C54.2103 253.12 52.4903 251.82 52.4903 251.82L52.4503 253.11L43.5703 252.92V243.7C43.5703 243.7 49.0103 244.47 52.1203 240.74Z" fill="#313241"/>
<path d="M52.4803 252.23L52.4503 253.11L43.5703 252.92V252.11C46.1403 252.1 49.9103 252.13 52.4803 252.23Z" fill="#21212F"/>
<path d="M12.25 115.12L16.84 242.14L30.36 242.05L38.92 115.12H12.25Z" fill="#4E90CC"/>
<path d="M32.8203 115.12L38.8003 154.56L41.6703 241.96L55.5303 241.87L61.6903 115.12H32.8203Z" fill="#4E90CC"/>
<path d="M43.1306 51.6299C41.5106 52.7399 35.3906 52.8599 33.9506 51.6299C31.5306 49.5799 33.9506 41.0699 33.9506 41.0699H43.1306C43.1306 41.0699 45.8506 49.7599 43.1306 51.6299Z" fill="#F8AFA0"/>
<path d="M49.8302 37.95C47.3602 42 39.0402 45.83 35.4402 45.8C32.0302 45.77 25.0901 41.69 23.0202 37.77C19.3701 30.87 17.6402 9.88004 24.1402 4.71004C31.1402 -0.859961 43.4602 -0.449957 48.5402 4.41004C54.7502 10.36 53.3002 32.28 49.8302 37.95Z" fill="#F8AFA0"/>
<g style="mix-blend-mode:multiply">
<path d="M50.23 6.75C51.08 10.39 50.94 14.2 50.92 17.99C50.88 23.32 51.42 28.28 49.88 33.38C48.52 37.86 43.77 40.47 39.77 42.56C37.71 43.63 35.54 44.46 33.18 44.34C31.9 44.28 30.67 44.03 29.46 43.68C31.66 44.95 33.91 45.79 35.44 45.8C39.04 45.83 47.36 42 49.83 37.95C52.94 32.87 54.42 14.74 50.23 6.75Z" fill="#FBD9D6"/>
</g>
<path d="M38.2098 51.1801L41.2198 56.4601L38.2598 61.9401L35.2998 56.6001L38.2098 51.1801Z" fill="#4E90CC"/>
<path d="M32.8599 47.46L38.2099 51.18L34.3099 59.34L28.3799 50.72L32.8599 47.46Z" fill="#C2C5C7"/>
<path d="M44.33 47.26L38.21 51.18L41.76 59.12L47.54 50.47L44.33 47.26Z" fill="#C2C5C7"/>
<path d="M61.5705 117.98C36.7505 121.8 17.4105 119.2 12.3105 118.37L12.4205 122.2C15.9305 122.74 23.8605 123.77 34.9605 123.77C42.6105 123.77 51.4905 123.26 61.3905 121.76L61.5705 117.98Z" fill="#313241"/>
<path d="M32.6299 119.18V124.74H41.1999V119.18H32.6299ZM40.0899 123.73H33.7299V122.34H35.1099V121.2H33.7299V120.09H40.0899V123.73Z" fill="#FED36A"/>
<path d="M25.0602 124.27H21.4902V118.69H25.0602V124.27Z" fill="#4E90CC"/>
<path d="M51.6205 123.79H48.0605V118.21H51.6205V123.79Z" fill="#4E90CC"/>
<g style="mix-blend-mode:multiply">
<path d="M36.7604 148.09C36.7004 145.5 36.6504 144.04 36.6504 144.04C32.7104 147.98 29.4804 188.7 29.4804 188.7C27.0804 232.65 19.7104 237.1 16.6504 236.98L16.6704 237.5C24.1004 242.23 28.3404 240.08 30.7304 236.54L36.7604 148.09Z" fill="#AAB9CF"/>
</g>
<g style="mix-blend-mode:multiply">
<path d="M55.8198 235.86C45.3998 233.92 47.1598 222.34 45.4398 188.34C43.6398 153.01 37.3698 144.4 37.3698 144.4L37.0898 144.26L38.7998 155.43L41.6298 240.71H55.5898L55.8198 235.86Z" fill="#AAB9CF"/>
</g>
<path d="M41.21 235.15L41.41 241.96L55.79 241.87L56.11 235.06L41.21 235.15Z" fill="#85BAE5"/>
<path d="M16.4199 235.12L16.6499 242.14L30.5499 242.05L30.9799 235.24L16.4199 235.12Z" fill="#85BAE5"/>
<path d="M43.5297 25.82C43.5297 27.23 42.7797 28.36 41.8597 28.36C40.9297 28.36 40.1797 27.23 40.1797 25.82C40.1797 24.42 40.9297 23.28 41.8597 23.28C42.7797 23.28 43.5297 24.42 43.5297 25.82Z" fill="#21212F"/>
<path d="M42.9603 24.79C42.9603 25.19 42.7503 25.5 42.4903 25.5C42.2303 25.5 42.0303 25.19 42.0303 24.79C42.0303 24.4 42.2303 24.08 42.4903 24.08C42.7503 24.08 42.9603 24.4 42.9603 24.79Z" fill="#FEFEFE"/>
<path d="M31.1505 25.82C31.1505 27.23 30.4105 28.36 29.4805 28.36C28.5605 28.36 27.8105 27.23 27.8105 25.82C27.8105 24.42 28.5605 23.28 29.4805 23.28C30.4105 23.28 31.1505 24.42 31.1505 25.82Z" fill="#21212F"/>
<path d="M30.4498 24.76C30.4498 25.15 30.2398 25.47 29.9798 25.47C29.7198 25.47 29.5098 25.15 29.5098 24.76C29.5098 24.37 29.7198 24.05 29.9798 24.05C30.2398 24.05 30.4498 24.37 30.4498 24.76Z" fill="#FEFEFE"/>
<path d="M39.3505 20.98L38.9805 20.07C38.9805 20.07 41.6305 19.72 44.8505 21C47.4405 22.04 41.5905 20.77 39.3505 20.98Z" fill="#F48533"/>
<path d="M32.31 21.07L32.68 20.16C32.68 20.16 30.03 19.81 26.81 21.09C24.22 22.13 30.07 20.86 32.31 21.07Z" fill="#F48533"/>
<path d="M34.1003 27.0601C34.4703 28.2001 34.6103 29.4001 34.5903 30.5901C34.5703 31.1968 34.4837 31.7934 34.3303 32.3801C34.1803 32.9601 33.9203 33.5301 33.5303 34.0101C33.8003 33.4601 33.9403 32.8901 34.0503 32.3201C34.1437 31.7468 34.197 31.1668 34.2103 30.5801C34.2503 29.4201 34.1803 28.2401 34.1003 27.0601Z" fill="#EA9181"/>
<path d="M33.6504 34.23C34.2204 34.51 34.6904 34.69 35.1704 34.73C35.6504 34.77 36.1504 34.66 36.8004 34.55C36.4904 35.07 35.8204 35.42 35.1104 35.37C34.3904 35.31 33.7804 34.83 33.6504 34.23Z" fill="#EA9181"/>
<path d="M34.2803 41.42C34.5903 41.58 34.8403 41.69 35.1003 41.71C35.3603 41.73 35.6303 41.67 35.9803 41.61C35.8103 41.91 35.4503 42.11 35.0603 42.08C34.6803 42.05 34.3503 41.77 34.2803 41.42Z" fill="#EA9181"/>
<path d="M30.6006 36.95C30.6006 36.95 36.6806 38.62 40.2806 36.71C40.2806 36.71 38.3206 40.65 35.5406 40.65C32.7606 40.65 30.6006 36.95 30.6006 36.95Z" fill="#FEFEFE"/>
<path d="M37.2999 60.18L33.6699 101.52L38.2899 110.64L43.3299 102.57L39.1899 60.15L37.2999 60.18Z" fill="#4E90CC"/>
<path d="M45.4198 116.83C51.5598 120.15 61.7299 115.97 61.7299 115.97C61.7299 115.97 58.8198 91.14 57.1998 72.64C56.3598 63.07 57.8298 55.64 56.0898 53.28C55.0498 51.88 51.4599 50.9 47.5399 50.37C47.5399 50.37 47.5032 50.3733 47.4299 50.38C47.4299 50.38 43.4798 115.78 45.4198 116.83Z" fill="#6752A1"/>
<g style="mix-blend-mode:multiply">
<path d="M59.6398 113.89C57.0499 114.59 53.9199 114.88 51.3699 113.87C49.2199 113.01 48.0499 111.3 47.6599 109.04C47.1999 106.34 47.4598 103.6 47.6698 100.89C47.9498 97.36 47.9199 93.83 48.2499 90.3C49.0199 81.88 49.1899 73.43 50.0399 65.01C50.5132 60.39 51.1132 55.7833 51.8398 51.19C50.5398 50.85 49.0699 50.58 47.5399 50.38C47.5399 50.3733 47.5032 50.3733 47.4299 50.38C47.4299 50.38 43.4798 115.78 45.4198 116.83C51.5598 120.15 61.7299 115.97 61.7299 115.97C61.7299 115.97 61.6498 114.96 61.5198 113.19C60.9132 113.483 60.2865 113.717 59.6398 113.89Z" fill="#B6BFD4"/>
</g>
<path d="M28.38 50.72C24.42 51.39 20.34 52.52 19.09 53.81C16.87 56.11 17.35 59.94 16.31 71.43C14.7 89.21 12.25 116.52 12.25 116.52C12.25 116.52 29.14 120.24 32.1 117.81C34.8 115.61 28.38 50.72 28.38 50.72Z" fill="#6752A1"/>
<g style="mix-blend-mode:multiply">
<path d="M28.38 50.72C28.16 50.7533 27.94 50.79 27.72 50.83C27.64 54.34 27.36 57.84 27.25 61.34C27.1167 65.5667 27.0533 69.79 27.06 74.01C27.0667 82.2633 27.3567 90.5033 27.93 98.73C28.15 101.86 28.6 105.05 28.54 108.19C28.51 110.01 28.3 112.19 26.92 113.54C25.15 115.28 22.42 115.39 20.11 114.93C17.47 114.4 14.97 113.3 12.34 112.84C12.27 115.16 12.25 116.52 12.25 116.52C12.25 116.52 29.14 120.24 32.1 117.81C34.8 115.61 28.38 50.72 28.38 50.72Z" fill="#B6BFD4"/>
</g>
<path d="M63.9002 86.6601C64.0902 87.1701 63.8102 87.7301 63.3002 87.9101L61.8202 88.4101C61.9702 88.5201 69.2702 88.4101 69.2702 88.4101C69.8002 88.3901 70.2602 88.7901 70.2902 89.3201C70.3202 89.8501 69.9002 90.3001 69.3702 90.3301L63.4402 90.6301L70.1802 90.8701C70.7502 90.8901 71.2002 91.3401 71.1802 91.8801C71.1702 92.4301 70.6902 92.8601 70.1202 92.8401L63.2302 92.6001L69.0102 93.1601C69.5302 93.2001 69.9202 93.6501 69.8902 94.1601C69.8502 94.6701 69.3902 95.0601 68.8702 95.0201L62.4302 94.4101V94.4201L66.8802 95.1401C67.3702 95.1901 67.7102 95.4601 67.6502 95.9701C67.6002 96.4801 67.2302 96.7001 66.7402 96.6501L62.4602 96.3001C61.9202 96.3001 59.3102 96.6101 56.6902 95.4301C54.6102 94.5001 54.5602 94.4701 53.4202 94.4601L53.4102 90.1201C53.4102 90.1201 54.4302 90.2301 54.6902 90.0001C57.4502 87.4901 59.7902 87.0501 59.9002 87.0201L62.6402 86.0701C63.1602 85.8901 63.7302 86.1601 63.9002 86.6601Z" fill="#F8AFA0"/>
<path d="M54.6404 89.13L52.9404 89.14L52.9504 95.61L54.6204 95.63L54.6404 89.13Z" fill="#D8DDE0"/>
<path d="M54.1404 88.83L12.3705 86.39L21.2505 61.26C22.1405 58.71 25.5905 52.53 22.2305 52.34C19.5605 52.19 15.6404 53.2 13.4904 57.89L0.500417 89.51C-0.00958291 90.97 0.240417 92.57 1.16042 93.83C2.08042 95.09 3.58042 95.86 5.19042 95.91L54.1804 96.3L54.1404 88.83Z" fill="#6752A1"/>
<g style="mix-blend-mode:multiply">
<path d="M54.1801 96.3L54.1401 88.83L12.3701 86.39C28.2101 91.79 46.9801 88.42 50.6101 90.72C53.3801 92.48 52.7901 95.12 52.3501 96.28L54.1801 96.3Z" fill="#B6BFD4"/>
</g>
<path d="M11.61 95.02C11.48 95.54 11.8 96.07 12.33 96.2L13.85 96.58C13.72 96.7 6.44002 97.24 6.44002 97.24C5.91002 97.27 5.49002 97.71 5.52002 98.24C5.54002 98.77 6.00002 99.18 6.54002 99.16L12.47 98.93L5.78002 99.77C5.21002 99.84 4.81002 100.33 4.88002 100.87C4.95002 101.41 5.47002 101.8 6.03002 101.73L12.87 100.87L7.17002 101.95C6.65002 102.03 6.31002 102.51 6.40002 103.02C6.49002 103.53 6.98001 103.87 7.49001 103.79L13.85 102.6V102.61L9.49002 103.72C9.01002 103.82 8.69002 104.12 8.80002 104.62C8.91002 105.12 9.29001 105.31 9.77001 105.22L14 104.48C14.54 104.44 17.17 104.51 19.66 103.1C21.64 101.98 21.68 101.95 22.82 101.84L22.39 97.52C22.39 97.52 21.39 97.72 21.11 97.51C18.11 95.26 15.74 95.04 15.63 95.01L12.8 94.31C12.27 94.18 11.74 94.5 11.61 95.02Z" fill="#F8AFA0"/>
<path d="M21.0703 96.64L22.7703 96.5L23.4003 102.94L21.7403 103.11L21.0703 96.64Z" fill="#D8DDE0"/>
<path d="M73.4099 94.84C73.4099 94.84 66.7399 67.07 62.5899 58.49C60.2599 53.66 58.2399 52.76 54.7899 52.17C51.5099 51.62 52.1099 59.68 52.8099 62.29L61.9699 91.57L21.8799 96.21L22.8599 103.7L68.7799 100.91C70.3099 100.82 71.7099 100.09 72.5999 98.91C73.4999 97.74 73.7899 96.24 73.4099 94.84Z" fill="#6752A1"/>
<g style="mix-blend-mode:multiply">
<path d="M22.8599 103.7L24.5899 103.6C24.1999 102.04 23.5299 98.4899 25.0599 97.7699C27.0299 96.8299 54.1299 97.7399 61.9699 91.5699L21.8799 96.2099L22.8599 103.7Z" fill="#B6BFD4"/>
</g>
<g style="mix-blend-mode:multiply">
<path d="M23.79 14.09C23.79 14.09 26.66 20 34.6 16.29C34.6 16.29 45.9 11.68 48.57 12.28C48.57 12.28 49.05 8.34996 42.06 10.17C42.06 10.17 27.93 11.07 23.79 14.09Z" fill="#FBD9D6"/>
</g>
<path d="M24.6999 13.66C24.6999 13.66 27.2599 18.9 38.9599 13.12C48.2099 8.55001 46.4899 11.77 47.8399 12.31C47.8399 12.31 52.5499 12.31 50.7999 6.53001C50.7999 6.53001 49.0499 0.0700069 37.7499 0.210007C26.4499 0.340007 23.2199 4.24001 20.9299 7.47001C20.9299 7.47001 18.6499 15 24.6999 13.66Z" fill="#FED36A"/>
<path d="M46.4901 8.58998C46.4901 8.58998 44.9601 12.65 48.2501 16.66C49.1001 17.69 50.6701 18.84 50.6201 21.5C50.5301 25.63 51.9901 25.7 52.8001 25.83C52.8001 25.83 55.1401 12.91 50.3401 5.47998L46.4901 8.58998Z" fill="#FED36A"/>
<path d="M25.2996 10.34C25.2996 10.34 26.8396 14.4 23.5496 18.41C22.6996 19.44 21.4796 20.6 21.1796 23.25C20.9296 25.43 20.1296 26.97 19.3196 27.11C19.3196 27.11 16.2196 14.64 21.0096 7.19995L25.2996 10.34Z" fill="#FED36A"/>
<path d="M22.58 28.36C22.04 31.18 23.3 32.74 21.52 32.33C20.07 31.99 18.79 30.79 18.79 28.36C18.79 25.93 19.95 24.61 21.44 24.61C22.94 24.61 23.19 25.19 22.58 28.36Z" fill="#F8AFA0"/>
<g style="mix-blend-mode:multiply">
<path d="M21.95 31.63C20.49 31.29 19.22 30.1 19.22 27.67C19.2267 26.7967 19.3634 26.0733 19.63 25.5C19.12 26.13 18.79 27.09 18.79 28.36C18.79 30.79 20.07 31.99 21.52 32.33C22.35 32.52 22.51 32.28 22.51 31.69C22.3767 31.7033 22.19 31.6833 21.95 31.63Z" fill="#FBD9D6"/>
</g>
<path d="M50.1198 27.91C50.6598 30.73 49.3998 32.29 51.1698 31.88C52.6298 31.54 53.8998 30.35 53.8998 27.91C53.8998 25.48 52.7398 24.16 51.2498 24.16C49.7598 24.16 49.5098 24.74 50.1198 27.91Z" fill="#F8AFA0"/>
<g style="mix-blend-mode:multiply">
<path d="M50.7497 31.18C52.1997 30.85 53.4797 29.65 53.4797 27.22C53.4663 26.3467 53.3263 25.6233 53.0597 25.05C53.5797 25.68 53.8997 26.64 53.8997 27.91C53.8997 30.35 52.6297 31.54 51.1697 31.88C50.3497 32.07 50.1797 31.83 50.1797 31.24C50.3197 31.26 50.5097 31.24 50.7497 31.18Z" fill="#FBD9D6"/>
</g>
</g>
<defs>
<clipPath id="clip0_5_1023">
<rect width="74" height="255" fill="white"/>
</clipPath>
</defs>
</svg>
