<svg width="81" height="259" viewBox="0 0 81 259" fill="none" xmlns="http://www.w3.org/2000/svg">
<g clip-path="url(#clip0_5_1150)">
<path d="M39.9897 0.209979C39.9897 0.209979 65.4397 -2.30001 58.6297 49.21C58.6297 49.21 54.3997 56.02 40.4197 55.25C26.1697 54.46 24.3797 50.93 22.3097 48C22.3097 48 10.1397 0.289979 39.9897 0.209979Z" fill="#0F0D1C"/>
<path d="M21.0101 245.65C21.0101 245.65 13.1001 252.79 6.04005 253.11C1.96005 253.29 1.49004 261.33 18.68 257.31C21.12 256.74 22.8901 256.73 22.8901 256.73L31.9201 256.78L31.84 247.39C31.84 247.39 25.1101 248.02 21.0101 245.65Z" fill="#F8AFA0"/>
<path d="M23.8996 252.94C18.8996 254.19 6.29968 256.88 5.92968 253.12C1.95968 253.45 1.56968 261.73 18.5897 257.75C21.0397 257.17 22.8097 257.16 22.8097 257.16C22.8097 257.16 31.0597 257.94 31.9697 256.99C33.4797 255.4 31.8397 247.54 31.8397 247.54C30.7597 249.44 26.8496 252.2 23.8996 252.94Z" fill="#4C4D60"/>
<path d="M56.3301 245.65C56.3301 245.65 64.2401 252.79 71.3001 253.11C75.3701 253.29 75.8502 261.33 58.6602 257.31C56.2102 256.74 54.4402 256.73 54.4402 256.73L45.4102 256.78L45.5002 247.39C45.5002 247.39 52.2301 248.02 56.3301 245.65Z" fill="#F8AFA0"/>
<path d="M53.44 252.94C58.44 254.19 71.04 256.88 71.41 253.12C75.38 253.45 75.77 261.73 58.75 257.75C56.3 257.17 54.53 257.16 54.53 257.16C54.53 257.16 46.28 257.94 45.37 256.99C43.85 255.4 45.5 247.54 45.5 247.54C46.58 249.44 50.49 252.2 53.44 252.94Z" fill="#4C4D60"/>
<path d="M21.0099 247.46H31.9699L39.9399 138.6L42.0198 149.37L45.4399 247.46H56.3999C57.1299 234.94 60.5899 165 63.7199 134.96C64.7999 124.6 63.3499 114.67 63.3499 114.67L40.0799 116.41L16.1698 115.22C16.1698 115.22 15.3999 126.38 16.4399 134.27C19.7099 159.19 20.7499 234.36 21.0099 247.46Z" fill="#F8AFA0"/>
<path d="M63.5601 114.12C63.6601 112.8 63.3301 109.14 60.4301 99.12C57.7301 89.77 62.1901 79.34 62.2501 73.28C62.3301 63.62 59.9901 57.12 58.8101 54.46C57.7601 52.12 50.2201 52.6 46.3301 52.08C46.3301 52.08 36.4301 51.82 31.9301 52.16C29.4401 52.29 27.5601 52.58 26.1301 52.94C24.0601 53.4 22.4801 54.03 21.6801 54.86C21.5267 55.0267 21.3901 55.4867 21.2701 56.24C19.7601 59.36 18.4601 66.44 19.2001 72.67C20.0801 80.19 20.2401 91.55 18.1601 99.07C15.9901 106.9 15.3601 120.39 15.8801 133.45C16.1301 139.88 17.8601 164.22 18.6701 183.27H61.0901C62.2101 165.1 63.8501 141.85 64.4001 134.88C65.2901 123.69 63.9701 116.08 63.5601 114.12Z" fill="#FED36A"/>
<g style="mix-blend-mode:multiply">
<path d="M63.56 114.12C63.66 112.8 63.33 109.14 60.43 99.12C57.99 90.65 61.41 81.3 62.12 75.11C58.81 85.14 55.69 90.79 56.39 101.62C56.78 107.8 63.55 166.93 52.93 171.46C48.17 173.49 24.59 173.65 18.21 173.65C18.39 176.93 18.54 180.17 18.67 183.27H61.09C62.21 165.1 63.85 141.85 64.4 134.88C65.29 123.69 63.97 116.08 63.56 114.12Z" fill="#EEE3CF"/>
</g>
<path d="M17.9298 132.57C17.4698 132.82 16.8899 132.65 16.6399 132.21L15.9199 130.92C15.8399 131.08 17.0299 137.8 17.0299 137.8C17.1399 138.29 16.8098 138.78 16.2998 138.89C15.7898 139 15.2898 138.69 15.1798 138.19L14.0099 132.76L14.7799 139.03C14.8499 139.56 14.4699 140.05 13.9399 140.12C13.4099 140.19 12.9199 139.82 12.8499 139.28L12.0599 132.87L12.3799 138.31C12.4199 138.8 12.0399 139.23 11.5399 139.27C11.0399 139.32 10.5898 138.96 10.5498 138.47L10.1899 132.42H10.1799L10.1399 136.65C10.1599 137.11 9.94983 137.47 9.44983 137.49C8.93983 137.52 8.66981 137.22 8.64981 136.76L8.3598 132.74C8.2698 132.25 7.58981 129.88 8.33981 127.27C8.93981 125.21 8.94983 125.16 8.78983 124.1L13.0099 123.41C13.0099 123.41 13.0499 124.37 13.3199 124.58C16.1699 126.74 16.9398 128.83 16.9898 128.92L18.3199 131.31C18.5699 131.76 18.3998 132.33 17.9298 132.57Z" fill="#F8AFA0"/>
<path d="M14.9903 123.87L8.53034 97.49L24.2503 58.36C25.1003 56.23 27.4403 52.31 24.2103 53.48C21.8903 54.31 17.2803 55.5 14.8203 60.48L0.350347 95.64C0.0203467 96.45 -0.039646 97.33 0.170354 98.18L7.04034 125.05L14.9903 123.87Z" fill="#FED36A"/>
<path d="M62.5705 132.44C63.0405 132.69 63.6204 132.53 63.8704 132.08L64.5804 130.79C64.6704 130.95 63.4805 137.67 63.4805 137.67C63.3705 138.16 63.7004 138.65 64.2104 138.76C64.7204 138.87 65.2205 138.56 65.3205 138.06L66.5005 132.63L65.7305 138.9C65.6605 139.43 66.0304 139.92 66.5604 139.99C67.0904 140.06 67.5804 139.69 67.6504 139.16L68.4405 132.74L68.1305 138.18C68.0905 138.67 68.4605 139.1 68.9705 139.14C69.4705 139.19 69.9105 138.83 69.9505 138.34L70.3205 132.29H70.3304L70.3604 136.52C70.3404 136.98 70.5504 137.34 71.0604 137.37C71.5604 137.39 71.8305 137.09 71.8505 136.63L72.1504 132.61C72.2304 132.12 72.9205 129.75 72.1705 127.14C71.5705 125.08 71.5504 125.03 71.7104 123.97L67.4904 123.28C67.4904 123.28 67.4504 124.24 67.1804 124.45C64.3404 126.61 63.5605 128.7 63.5105 128.8L62.1804 131.18C61.9304 131.63 62.1105 132.2 62.5705 132.44Z" fill="#F8AFA0"/>
<path d="M65.6 123.31L72.06 96.93L56.34 57.79C55.49 55.67 53.15 51.75 56.39 52.92C58.7 53.75 63.31 54.94 65.77 59.92L80.24 95.08C80.57 95.89 80.63 96.77 80.42 97.62L73.55 124.49L65.6 123.31Z" fill="#FED36A"/>
<g style="mix-blend-mode:multiply">
<path d="M65.5996 123.31L66.4996 119.61C68.1096 119.99 70.8896 120.54 71.7896 120.09C73.0796 119.45 77.0896 100.55 77.3496 96.5401C77.6096 92.5301 70.1696 74.5801 67.8196 68.4601C66.0896 63.9701 66.8896 62.8001 67.1696 63.3301L80.2396 95.0801C80.5696 95.8901 80.6296 96.7701 80.4196 97.6201L73.5496 124.49L65.5996 123.31Z" fill="#EEE3CF"/>
</g>
<path d="M46.4199 52.12C46.7699 53.01 45.1299 55.39 40.8199 55.45C36.5199 55.52 34.8199 52.83 35.3899 52.05C37.3299 49.4 36.8199 42.34 36.8199 42.34H45.9399C45.9399 42.34 45.7099 50.31 46.4199 52.12Z" fill="#F8AFA0"/>
<path d="M51.9102 38.73C49.9202 43.94 41.8702 47.07 38.3002 47.04C34.9202 47.01 27.6702 42.82 26.5502 38.34C24.6702 30.81 20.6201 11.37 27.0801 6.22997C34.0301 0.709975 46.2702 1.10997 51.3102 5.93997C57.4802 11.84 54.2702 32.56 51.9102 38.73Z" fill="#F8AFA0"/>
<g style="mix-blend-mode:multiply">
<path d="M53.8602 28.21C52.6502 31.88 52.5802 34.46 50.1702 39.24C48.5602 42.42 43.1302 44 39.6902 45.12C38.1302 45.64 36.6202 45.84 34.9802 45.59C34.3102 45.48 33.6402 45.39 32.9902 45.23C34.9502 46.34 36.9402 47.03 38.3002 47.04C41.8702 47.07 49.9202 43.94 51.9102 38.73C52.8902 36.17 54.0102 31.11 54.5502 25.64C54.3635 26.5067 54.1335 27.3633 53.8602 28.21Z" fill="#FBD9D6"/>
</g>
<path d="M36.7998 35.52C37.1998 35.81 37.5299 35.99 37.8799 36.02C38.2199 36.08 38.5699 35.96 39.0299 35.85C38.8099 36.38 38.3398 36.74 37.8298 36.68C37.3198 36.62 36.8898 36.13 36.7998 35.52Z" fill="#EA9181"/>
<path d="M37.2301 29.24C37.4401 29.69 37.5501 30.18 37.6201 30.67C37.6868 31.17 37.7035 31.67 37.6701 32.17C37.6368 32.67 37.5501 33.16 37.4101 33.64C37.2835 34.12 37.1035 34.58 36.8701 35.02C37.0901 34.06 37.2801 33.11 37.3401 32.14C37.4201 31.18 37.3835 30.2133 37.2301 29.24Z" fill="#EA9181"/>
<path d="M37.0205 42.08C37.3305 42.25 37.5905 42.35 37.8605 42.37C38.1205 42.4 38.4006 42.33 38.7606 42.27C38.5806 42.58 38.2206 42.79 37.8206 42.76C37.4306 42.72 37.0905 42.44 37.0205 42.08Z" fill="#EA9181"/>
<path d="M33.9305 27.56C33.9305 29 33.1606 30.16 32.2206 30.16C31.2806 30.16 30.5205 29 30.5205 27.56C30.5205 26.13 31.2806 24.97 32.2206 24.97C33.1606 24.97 33.9305 26.13 33.9305 27.56Z" fill="#21212F"/>
<path d="M33.21 26.48C33.21 26.88 32.99 27.21 32.73 27.21C32.47 27.21 32.25 26.88 32.25 26.48C32.25 26.08 32.47 25.76 32.73 25.76C32.99 25.76 33.21 26.08 33.21 26.48Z" fill="#FEFEFE"/>
<path d="M34.7901 23.58C34.2701 23.5467 33.7801 23.5267 33.3201 23.52C32.8601 23.52 32.3901 23.43 31.9201 23.47C30.9701 23.56 30.0301 23.9 29.1601 24.4L29.1201 24.34C29.8601 23.65 30.7801 23.1 31.8201 22.86C32.3301 22.74 32.8801 22.63 33.4201 22.75C33.9401 22.87 34.4601 23.09 34.8301 23.51L34.7901 23.58Z" fill="#21212F"/>
<path d="M42.9199 27.56C42.9199 29 43.6799 30.16 44.6299 30.16C45.5599 30.16 46.3298 29 46.3298 27.56C46.3298 26.13 45.5599 24.97 44.6299 24.97C43.6799 24.97 42.9199 26.13 42.9199 27.56Z" fill="#21212F"/>
<path d="M44.6807 26.45C44.6807 26.85 44.8907 27.17 45.1507 27.17C45.4107 27.17 45.6307 26.85 45.6307 26.45C45.6307 26.05 45.4107 25.73 45.1507 25.73C44.8907 25.73 44.6807 26.05 44.6807 26.45Z" fill="#FEFEFE"/>
<path d="M42.0205 23.51C42.3905 23.09 42.9105 22.87 43.4305 22.75C43.9705 22.63 44.5206 22.74 45.0306 22.86C46.0706 23.1 46.9906 23.65 47.7306 24.34L47.6906 24.4C46.8206 23.9 45.8805 23.56 44.9305 23.47C44.4505 23.43 43.9906 23.52 43.5306 23.52C43.0706 23.5267 42.5806 23.5467 42.0606 23.58L42.0205 23.51Z" fill="#21212F"/>
<path d="M34.6104 38.56C34.6104 38.56 39.0703 39.78 41.7104 38.38C41.7104 38.38 40.2804 41.27 38.2404 41.27C36.2004 41.27 34.6104 38.56 34.6104 38.56Z" fill="#FEFEFE"/>
<path d="M54.6301 13.5601C54.6301 13.5601 49.3501 15.2401 51.0701 19.5701C53.9601 26.8201 54.2701 30.1401 54.2701 30.1401C54.2701 30.1401 55.5401 29.8001 55.6701 25.2001C55.6701 25.2001 55.9901 15.1101 54.6301 13.5601Z" fill="#0F0D1C"/>
<path d="M23.1599 10.74C23.1599 10.74 27.6799 12.42 27.3499 17.07C27.0099 22.03 24.8498 21.95 24.3298 29.32C24.3298 29.32 22.4999 27.68 21.9999 23.11C21.6199 19.55 21.7299 13.65 23.1599 10.74Z" fill="#0F0D1C"/>
<path d="M26.0901 29.81C25.5501 32.61 26.8101 34.15 25.0401 33.74C23.6001 33.41 22.3301 32.22 22.3301 29.81C22.3301 27.4 23.4801 26.08 24.9701 26.08C26.4501 26.08 26.6901 26.66 26.0901 29.81Z" fill="#F8AFA0"/>
<g style="mix-blend-mode:multiply">
<path d="M25.4601 33.05C24.0201 32.72 22.7501 31.53 22.7501 29.12C22.7634 28.2533 22.9001 27.5333 23.1601 26.96C22.6501 27.59 22.3301 28.55 22.3301 29.81C22.3301 32.22 23.6001 33.41 25.0401 33.74C25.8601 33.93 26.0301 33.7 26.0301 33.11C25.8901 33.13 25.7001 33.11 25.4601 33.05Z" fill="#FBD9D6"/>
</g>
<path d="M52.3599 29.5401C52.8999 32.3301 51.6399 33.8801 53.4099 33.4701C54.8499 33.1401 56.1199 31.9501 56.1199 29.5401C56.1199 27.1201 54.97 25.8101 53.48 25.8101C52 25.8101 51.7599 26.3901 52.3599 29.5401Z" fill="#F8AFA0"/>
<g style="mix-blend-mode:multiply">
<path d="M52.9799 32.7799C54.4299 32.4499 55.6899 31.2599 55.6899 28.8499C55.6832 27.9832 55.5465 27.2632 55.2799 26.6899C55.7999 27.3199 56.1198 28.2699 56.1198 29.5399C56.1198 31.9499 54.8499 33.1399 53.4099 33.4699C52.5899 33.6599 52.4199 33.4199 52.4199 32.8399C52.5599 32.8532 52.7465 32.8332 52.9799 32.7799Z" fill="#FBD9D6"/>
</g>
<path d="M54.28 32.82C54.28 33.38 53.82 33.8301 53.26 33.8301C52.7 33.8301 52.25 33.38 52.25 32.82C52.25 32.26 52.7 31.8 53.26 31.8C53.82 31.8 54.28 32.26 54.28 32.82Z" fill="#FED36A"/>
<path d="M53.98 34.34C53.98 34.74 53.66 35.06 53.26 35.06C52.86 35.06 52.54 34.74 52.54 34.34C52.54 33.94 52.86 33.62 53.26 33.62C53.66 33.62 53.98 33.94 53.98 34.34Z" fill="#FED36A"/>
<path d="M26.3698 33.29C26.3698 33.85 25.9098 34.31 25.3498 34.31C24.7898 34.31 24.3398 33.85 24.3398 33.29C24.3398 32.73 24.7898 32.28 25.3498 32.28C25.9098 32.28 26.3698 32.73 26.3698 33.29Z" fill="#FED36A"/>
<path d="M26.0699 34.81C26.0699 35.21 25.7499 35.53 25.3499 35.53C24.9499 35.53 24.6299 35.21 24.6299 34.81C24.6299 34.41 24.9499 34.09 25.3499 34.09C25.7499 34.09 26.0699 34.41 26.0699 34.81Z" fill="#FED36A"/>
<path d="M18.3896 177.06C18.4896 179.18 18.583 181.25 18.6696 183.27H61.0896C61.2163 181.25 61.3463 179.18 61.4796 177.06H18.3896Z" fill="#F79D52"/>
<path d="M25.9305 17.63C25.9305 17.63 30.2905 12.28 37.6205 14.96C44.9505 17.63 48.6805 18.71 52.8905 17.16C52.8905 17.16 54.9205 16.9 54.7705 13.52C54.5005 7.66997 50.5205 1.58997 39.2205 1.66997C39.2205 1.66997 24.1205 2.18997 22.4805 13.4L25.9305 17.63Z" fill="#0F0D1C"/>
<g style="mix-blend-mode:multiply">
<path d="M6.69043 97.02C6.24043 99.94 10.3105 117.79 10.7005 119.86C10.9505 121.2 8.19043 121.62 6.19043 121.75L7.04044 125.05L14.9905 123.87L8.53043 97.49L18.7205 72.13C18.7205 72.13 7.28043 93.24 6.69043 97.02Z" fill="#EEE3CF"/>
</g>
<path d="M46.42 52.0699C46.42 52.0699 44.41 54.5199 40.95 55.4499C40.56 55.5599 45.01 60.0499 45.01 60.0499L49.14 52.2699L46.42 52.0699Z" fill="#FEFEFE"/>
<path d="M35.4503 51.97C35.4503 51.97 37.2903 55 41.0003 55.42C41.4003 55.47 36.4703 59.76 36.4703 59.76L32.5303 52.1L35.4503 51.97Z" fill="#FEFEFE"/>
</g>
<defs>
<clipPath id="clip0_5_1150">
<rect width="81" height="259" fill="white"/>
</clipPath>
</defs>
</svg>
