<svg width="56" height="112" viewBox="0 0 56 112" fill="none" xmlns="http://www.w3.org/2000/svg">
<g clip-path="url(#clip0_5_847)">
<path d="M42.9467 104.342C41.1285 111.428 15.4449 111.487 13.8631 104.342C13.2813 101.709 13.8631 95.9899 13.8631 95.9899H42.9467C42.9467 95.9899 43.4958 102.205 42.9467 104.342Z" fill="#7ACAB7"/>
<g style="mix-blend-mode:multiply" opacity="0.3">
<path d="M43.0801 97.8578C43.0159 96.7634 42.9468 95.9899 42.9468 95.9899H13.8631C13.8631 95.9899 13.8013 96.6036 13.7383 97.5198C23.3613 100.305 33.6159 100.565 43.0801 97.8578Z" fill="#7ACAB7"/>
</g>
<path d="M27.0633 111.91L28.3275 101.5C28.3275 101.5 17.6148 100.547 14.8196 101.5C14.2851 101.683 13.8633 104.342 13.8633 104.342L14.3857 111.91H27.0633Z" fill="#7ACAB7"/>
<path d="M42.2656 111.91L42.9468 104.342C42.9468 104.342 42.2329 101.683 41.6983 101.5C38.9044 100.547 28.1904 101.5 28.1904 101.5L29.4547 111.91H42.2656Z" fill="#7ACAB7"/>
<path d="M43.4955 96.1204C43.0361 80.6393 44.201 65.9244 35.8519 61.6506C34.2252 60.8185 31.3125 60.7184 28.3889 60.7184C25.3234 60.7184 21.4955 60.5379 19.5876 61.5042C11.0543 65.8268 14.3901 80.6479 13.281 96.1204C13.1113 98.4812 43.5658 98.4861 43.4955 96.1204Z" fill="#2498CC"/>
<g style="mix-blend-mode:multiply" opacity="0.5">
<path d="M41.9379 94.4806C41.9986 96.5108 19.5889 96.7951 13.3295 95.3432C13.3149 95.6027 13.2987 95.8617 13.281 96.1204C13.1113 98.4812 43.5658 98.486 43.4955 96.1204C43.3331 90.6241 43.1198 80.3586 43.1198 80.3586C43.1198 80.3586 41.8155 90.3569 41.9379 94.4806Z" fill="#2498CC"/>
</g>
<path d="M32.2877 60.844L28.5374 60.705H24.5919C24.0319 61.265 23.7168 62.0897 23.7168 62.8315C23.7168 64.714 25.2477 66.5782 28.4489 66.5782C31.7629 66.5782 33.181 64.714 33.181 62.8315C33.181 62.0897 32.8489 61.404 32.2877 60.844Z" fill="#F1F2F1"/>
<path d="M16.1246 62.6864C16.1246 62.6864 19.2531 62.152 20.6931 65.2448C21.7743 67.5641 19.6495 68.761 18.5307 69.2295C15.5379 70.4849 11.5125 72.681 7.80945 73.7607C4.00824 74.8697 2.62642 75.5627 2.24824 74.9027C1.82036 74.1572 0.507629 71.2023 1.16945 70.4568C3.76702 67.5324 9.47248 63.9394 16.1246 62.6864Z" fill="#F7BF9E"/>
<g style="mix-blend-mode:multiply" opacity="0.7">
<path d="M20.6934 65.2448C19.2534 62.152 16.125 62.6864 16.125 62.6864C11.9504 63.4733 8.1504 65.1801 5.25586 67.0663C5.50556 69.5284 6.82798 71.7098 8.52737 73.5387C12.0256 72.4028 15.731 70.4044 18.531 69.2295C19.6498 68.761 21.7747 67.5641 20.6934 65.2448Z" fill="#F6B499"/>
</g>
<path d="M21.7659 64.8238C20.0944 61.2357 16.4641 61.8554 16.4641 61.8554C12.7174 62.5606 9.19862 64.0149 6.22044 65.7096C4.96105 69.0781 9.15863 73.3251 9.43863 73.8119C12.9417 72.471 16.4823 70.6129 19.2568 69.449C20.5538 68.9036 23.0217 67.5152 21.7659 64.8238Z" fill="#2498CC"/>
<path d="M0.682798 73.0274C0.682798 73.0274 0.0282507 71.0802 1.8634 69.8224C3.24037 68.8805 4.52401 70.5751 5.08886 71.4719C6.59795 73.868 10.5664 79.4717 12.0113 82.7365C12.6343 84.1444 10.3567 85.1839 9.69734 84.6666C7.11552 82.6377 2.97371 78.4005 0.682798 73.0274Z" fill="#F7BF9E"/>
<path d="M17.023 86.3234C16.4509 85.9635 15.1139 85.0058 14.4012 84.4983C14.3939 84.4763 13.8849 84.1493 13.7164 83.8211C13.72 83.8175 13.5285 82.972 13.5188 82.4901C12.7649 82.3058 11.7091 82.1448 11.3309 82.4901C10.1418 82.9403 9.7782 84.1359 9.7782 84.1359L9.76244 84.7337C9.74062 85.0302 9.8485 85.3035 10.2267 85.8037C10.4618 86.1136 11.1552 86.9005 11.5418 87.1872C11.9091 87.8217 12.6727 89.143 12.9467 89.6822C13.0545 89.8957 13.2909 90.0824 13.4485 89.9909C13.5612 89.9262 13.6739 89.6981 13.5455 89.4455C13.2218 88.8099 12.5176 87.1153 12.56 87.0921C13.2012 87.8668 14.0873 88.8343 14.5358 89.3589C14.7442 89.6115 15.0267 89.5773 15.1418 89.4724C15.3018 89.3248 15.2073 88.977 15.0303 88.7611C14.657 88.3048 13.8703 87.2312 13.3309 86.493C13.3818 86.4442 15.4109 87.9595 15.9855 88.4463C16.2291 88.6635 16.5079 88.5878 16.6085 88.4683C16.7503 88.3036 16.6049 87.9766 16.3976 87.7924C15.8897 87.3422 14.7164 86.1697 14.0994 85.5548C14.1152 85.5292 15.7006 86.3893 16.7042 87.0237C16.9806 87.197 17.2509 87.0823 17.3345 86.9505C17.4509 86.7688 17.257 86.4711 17.023 86.3234Z" fill="#F7BF9E"/>
<path d="M40.248 62.6864C40.248 62.6864 37.1195 62.152 35.6783 65.2448C34.5983 67.5641 36.7232 68.761 37.842 69.2295C40.8347 70.4849 44.8601 72.681 48.5632 73.7607C52.3632 74.8697 53.7462 75.5627 54.1244 74.9027C54.551 74.1572 55.865 71.2023 55.2032 70.4568C52.6056 67.5324 46.9001 63.9394 40.248 62.6864Z" fill="#F7BF9E"/>
<g style="mix-blend-mode:multiply" opacity="0.7">
<path d="M35.6783 65.2448C37.1195 62.152 40.248 62.6864 40.248 62.6864C44.4226 63.4733 48.2226 65.1801 51.1171 67.0663C50.8674 69.5284 49.545 71.7098 47.8456 73.5387C44.3474 72.4028 40.642 70.4044 37.842 69.2295C36.7232 68.761 34.5983 67.5641 35.6783 65.2448Z" fill="#F6B499"/>
</g>
<path d="M34.607 64.8238C36.2785 61.2357 39.9088 61.8554 39.9088 61.8554C43.6555 62.5606 47.1743 64.0149 50.1525 65.7096C51.4119 69.0781 47.2143 73.3251 46.9343 73.8119C43.4313 72.471 39.8919 70.6129 37.1161 69.449C35.8179 68.9036 33.3513 67.5152 34.607 64.8238Z" fill="#2498CC"/>
<path d="M55.6912 73.0274C55.6912 73.0274 56.3457 71.0802 54.5106 69.8224C53.1336 68.8805 51.8499 70.5751 51.2851 71.4719C49.776 73.868 45.8075 79.4717 44.3627 82.7365C43.7396 84.1444 46.0172 85.1839 46.6766 84.6666C49.2572 82.6377 53.399 78.4005 55.6912 73.0274Z" fill="#F7BF9E"/>
<path d="M46.6108 84.7337L46.595 84.1359C46.595 84.1359 46.2314 82.9402 45.0423 82.49C44.7914 82.2607 43.7526 82.1301 43.2047 82.2119C42.875 82.8194 42.646 83.8113 42.6569 83.8211C42.4884 84.1493 41.9781 84.4763 41.972 84.4982C41.2581 85.0058 39.9223 85.9635 39.3502 86.3234C39.1163 86.471 38.9223 86.7687 39.0387 86.9505C39.1235 87.0823 39.3926 87.197 39.669 87.0237C40.6726 86.3893 42.2581 85.5292 42.2738 85.5548C41.6569 86.1697 40.4823 87.3421 39.9756 87.7923C39.7684 87.9766 39.6229 88.3035 39.7647 88.4683C39.8653 88.5878 40.1441 88.6635 40.3878 88.4463C40.9623 87.9595 42.9914 86.4442 43.0423 86.493C42.5029 87.2311 41.7163 88.3048 41.3429 88.7611C41.1659 88.977 41.0714 89.3247 41.2314 89.4723C41.3466 89.5773 41.629 89.6114 41.8375 89.3589C42.2859 88.8343 43.172 87.8668 43.8132 87.092C43.8556 87.1152 43.1514 88.8099 42.8278 89.4455C42.6993 89.698 42.812 89.9262 42.9247 89.9909C43.0823 90.0824 43.3187 89.8957 43.4266 89.6822C43.7005 89.1429 44.4641 87.8216 44.8314 87.1872C45.2181 86.9005 45.9114 86.1136 46.1466 85.8037C46.5235 85.3035 46.6338 85.0302 46.6108 84.7337Z" fill="#F7BF9E"/>
<path d="M31.6864 62.18C31.6864 62.18 31.6864 65.1313 28.3834 65.1313C25.1543 65.1313 25.1543 62.18 25.1543 62.18V55.8004H31.6864V62.18Z" fill="#F5AC96"/>
<g style="mix-blend-mode:multiply" opacity="0.7">
<path d="M25.1543 55.8004V60.838C27.2864 61.3455 29.5313 61.5358 31.6864 61.337V55.8004H25.1543Z" fill="#F6B499"/>
</g>
<path d="M8.11636 40.6877C8.11636 42.9448 6.29939 44.7724 4.05818 44.7724C1.81697 44.7724 0 42.9448 0 40.6877C0 38.4331 1.81697 36.603 4.05818 36.603C6.29939 36.603 8.11636 38.4331 8.11636 40.6877Z" fill="#F5AC96"/>
<g style="mix-blend-mode:multiply" opacity="0.6">
<path d="M8.11653 40.6877C8.11653 42.5922 6.5832 44.1368 4.69108 44.1368C2.79896 44.1368 1.26562 42.5922 1.26562 40.6877C1.26562 38.7844 2.79896 37.2399 4.69108 37.2399C6.5832 37.2399 8.11653 38.7844 8.11653 40.6877Z" fill="#F7BF9E"/>
</g>
<path d="M47.7734 40.6877C47.7734 42.9448 49.5904 44.7724 51.8316 44.7724C54.0728 44.7724 55.8898 42.9448 55.8898 40.6877C55.8898 38.4331 54.0728 36.603 51.8316 36.603C49.5904 36.603 47.7734 38.4331 47.7734 40.6877Z" fill="#F5AC96"/>
<g style="mix-blend-mode:multiply" opacity="0.6">
<path d="M47.7734 40.6877C47.7734 42.5922 49.3068 44.1368 51.1989 44.1368C53.091 44.1368 54.6243 42.5922 54.6243 40.6877C54.6243 38.7844 53.091 37.2399 51.1989 37.2399C49.3068 37.2399 47.7734 38.7844 47.7734 40.6877Z" fill="#F7BF9E"/>
</g>
<path d="M51.6245 30.637C51.6245 17.3654 40.9348 6.60583 27.7494 6.60583C14.5627 6.60583 3.87305 17.3654 3.87305 30.637C3.87305 34.3337 4.70456 37.834 6.18577 40.9622C5.63184 42.1994 5.3288 43.5024 5.3288 44.8517C5.3288 52.7015 15.3664 59.0652 27.7494 59.0652C40.1312 59.0652 50.1688 52.7015 50.1688 44.8517C50.1688 43.5024 49.8658 42.1994 49.3118 40.9622C50.793 37.834 51.6245 34.3337 51.6245 30.637Z" fill="#F7BF9E"/>
<g style="mix-blend-mode:multiply" opacity="0.7">
<path d="M51.6246 30.637C51.6246 22.7177 47.8173 15.6951 41.9458 11.3164C47.2925 15.7244 50.7058 22.4188 50.7058 29.9184C50.7058 33.6139 49.8755 37.1142 48.3943 40.2424C48.9482 41.4795 49.2501 42.7825 49.2501 44.1319C49.2501 51.9816 39.2137 58.3466 26.8307 58.3466C20.021 58.3466 13.9252 56.4189 9.8125 53.3798C13.9034 56.8325 20.4149 59.0652 27.7494 59.0652C40.1313 59.0652 50.1688 52.7015 50.1688 44.8517C50.1688 43.5023 49.8658 42.1993 49.3119 40.9622C50.7931 37.834 51.6246 34.3337 51.6246 30.637Z" fill="#F6B499"/>
</g>
<path d="M17.7941 43.24C17.7941 43.9513 16.2789 44.5272 14.4098 44.5272C12.5408 44.5272 11.0244 43.9513 11.0244 43.24C11.0244 42.5287 12.5408 41.9517 14.4098 41.9517C16.2789 41.9517 17.7941 42.5287 17.7941 43.24Z" fill="#F09694"/>
<path d="M44.4728 43.24C44.4728 43.9513 42.9577 44.5272 41.0874 44.5272C39.2183 44.5272 37.7031 43.9513 37.7031 43.24C37.7031 42.5287 39.2183 41.9517 41.0874 41.9517C42.9577 41.9517 44.4728 42.5287 44.4728 43.24Z" fill="#F09694"/>
<g style="mix-blend-mode:multiply" opacity="0.7">
<path d="M26.3301 44.005C26.3301 44.5052 26.9652 44.9091 27.7495 44.9091C28.5337 44.9091 29.1689 44.5052 29.1689 44.005H26.3301Z" fill="#F6B499"/>
</g>
<path d="M17.3078 39.3042C17.3078 40.9061 16.0096 42.2055 14.4096 42.2055C12.8096 42.2055 11.5127 40.9061 11.5127 39.3042C11.5127 37.7023 12.8096 36.403 14.4096 36.403C16.0096 36.403 17.3078 37.7023 17.3078 39.3042Z" fill="#FEFEFE"/>
<path d="M11.5129 39.9081C11.5129 39.9081 11.4959 39.7483 11.4838 39.4701C11.4778 39.331 11.4668 39.1651 11.5044 38.965C11.5408 38.7722 11.5384 38.5245 11.6402 38.2988C11.7226 38.0646 11.8014 37.7998 11.9699 37.5607C12.1032 37.2984 12.3105 37.0678 12.5383 36.8372C12.6462 36.7164 12.7977 36.6384 12.9311 36.5359L13.1408 36.3907L13.382 36.2943C13.6983 36.1381 14.0559 36.1089 14.4098 36.0662L14.9153 36.1308C15.0595 36.132 15.2583 36.2357 15.4232 36.2882L15.6789 36.3895L15.8898 36.5347C16.022 36.6371 16.1735 36.7152 16.2826 36.8372C16.5105 37.0678 16.7177 37.2984 16.8511 37.5607C17.0195 37.7986 17.0983 38.0634 17.1808 38.2988C17.2826 38.527 17.2777 38.7649 17.3153 38.9577C17.3529 39.1541 17.3432 39.3273 17.3359 39.4689C17.3238 39.7519 17.308 39.9081 17.308 39.9081C17.308 39.9081 17.2644 39.7495 17.2062 39.4823C17.1808 39.3493 17.1517 39.187 17.0717 39.0138C16.9917 38.843 16.9505 38.6356 16.8256 38.4452C16.7129 38.2488 16.6074 38.0316 16.4389 37.8438C16.2983 37.6315 16.0935 37.468 15.8983 37.2862C15.8038 37.191 15.6741 37.1447 15.5638 37.069L15.3905 36.9641L15.2147 36.9031C15.085 36.8714 15.0111 36.7896 14.8365 36.7884L14.4098 36.7396C14.142 36.7738 13.8668 36.7774 13.6195 36.897L13.4292 36.9629L13.2559 37.0678C13.1456 37.1435 13.0159 37.191 12.9214 37.285C12.7262 37.4668 12.5202 37.6303 12.3808 37.8425C12.2111 38.0317 12.1056 38.2476 11.9941 38.4452C11.8681 38.638 11.8281 38.8357 11.7481 39.0065C11.6681 39.1761 11.639 39.3456 11.6135 39.4811C11.5541 39.7531 11.5129 39.9081 11.5129 39.9081Z" fill="#B07229"/>
<path d="M16.5589 39.5629C16.5589 40.7842 15.5965 41.7761 14.4098 41.7761C13.2232 41.7761 12.2607 40.7842 12.2607 39.5629C12.2607 38.3392 13.2232 37.3485 14.4098 37.3485C15.5965 37.3485 16.5589 38.3392 16.5589 39.5629Z" fill="#0D5170"/>
<path d="M14.0546 38.5233C14.0546 38.9979 13.7516 39.381 13.377 39.381C13.0013 39.381 12.6982 38.9979 12.6982 38.5233C12.6982 38.0512 13.0013 37.6669 13.377 37.6669C13.7516 37.6669 14.0546 38.0512 14.0546 38.5233Z" fill="#FEFEFE"/>
<path d="M14.2927 40.0631C14.2927 40.3425 14.1133 40.5694 13.8914 40.5694C13.6696 40.5694 13.4902 40.3425 13.4902 40.0631C13.4902 39.7837 13.6696 39.5568 13.8914 39.5568C14.1133 39.5568 14.2927 39.7837 14.2927 40.0631Z" fill="#FEFEFE"/>
<path d="M37.9942 39.9082C37.9942 39.9082 37.982 39.7666 37.9614 39.5165C37.9602 39.3921 37.9263 39.2457 37.9723 39.0651C38.016 38.8931 38.0099 38.6625 38.1226 38.4636C38.172 38.3587 38.2232 38.2498 38.2766 38.1367C38.3287 38.0208 38.4317 37.9354 38.5141 37.828C38.6754 37.6047 38.9238 37.4595 39.1687 37.2985C39.4329 37.185 39.7069 37.0472 40.0026 37.0057C40.296 36.9252 40.5929 36.9325 40.8911 36.9044C41.2172 36.9349 41.4426 36.9215 41.7687 37.0045C42.079 37.0459 42.3505 37.185 42.6148 37.2973C42.8584 37.4595 43.1081 37.6035 43.2693 37.828C43.3517 37.9354 43.4535 38.0208 43.5069 38.1354C43.5602 38.2485 43.6115 38.3579 43.6608 38.4636C43.7735 38.6637 43.7651 38.8845 43.8087 39.0566C43.856 39.231 43.8232 39.3909 43.8208 39.5165C43.8051 39.7703 43.7893 39.9082 43.7893 39.9082C43.7893 39.9082 43.7529 39.7715 43.6887 39.5312C43.6548 39.414 43.6414 39.2664 43.5614 39.12C43.5283 39.0452 43.4927 38.9663 43.4548 38.8833C43.4232 38.7979 43.3845 38.7125 43.319 38.6393C43.2063 38.4807 43.0923 38.3123 42.9178 38.1842C42.7748 38.0256 42.5505 37.95 42.3578 37.8304C42.1335 37.756 41.9069 37.6755 41.6681 37.645C41.4596 37.584 41.1202 37.5962 40.8911 37.5767C40.6341 37.5974 40.3675 37.5803 40.1263 37.6425C39.8729 37.6743 39.6487 37.756 39.4245 37.8304C39.2317 37.9488 39.0063 38.0244 38.8645 38.1842C38.6899 38.3111 38.5748 38.4795 38.4632 38.6381C38.3966 38.7137 38.359 38.7967 38.3275 38.8784C38.2911 38.9598 38.2563 39.0371 38.2232 39.1103C38.1432 39.253 38.1275 39.4116 38.0935 39.53C38.0293 39.7715 37.9942 39.9082 37.9942 39.9082Z" fill="#B07229"/>
<path d="M20.6154 46.1682C20.4202 49.71 23.8481 53.253 27.7523 53.253C31.6554 53.253 34.8857 49.5331 34.8893 46.1682H20.6154Z" fill="#AF3E5C"/>
<path d="M20.7249 47.5652C21.9067 48.3948 24.3843 48.9841 27.3031 49.0426C27.4643 49.0463 28.0509 49.0463 28.1782 49.0451C30.9891 48.9999 33.4085 48.4643 34.6703 47.6945C34.8085 47.1857 34.8897 46.6733 34.8897 46.1682H20.6158C20.5903 46.6367 20.6315 47.1052 20.7249 47.5652Z" fill="#FEFEFE"/>
<path d="M20.6155 46.4976H34.8761C34.8842 46.3878 34.8887 46.278 34.8894 46.1682H20.6155C20.6082 46.3171 20.6075 46.4664 20.6131 46.616C20.6131 46.5762 20.6139 46.5367 20.6155 46.4976Z" fill="#E6E7E8"/>
<path d="M27.7487 50.0004C25.676 50.0004 23.7972 50.2895 22.3936 50.7605C23.7269 52.2391 25.6687 53.253 27.7523 53.253C29.8178 53.253 31.6905 52.2062 32.9996 50.7263C31.6069 50.2761 29.7705 50.0004 27.7487 50.0004Z" fill="#EC6580"/>
<g style="mix-blend-mode:multiply" opacity="0.7">
<path d="M29.0592 54.2876C29.0592 54.4389 28.561 54.5621 27.944 54.5621C27.3295 54.5621 26.8301 54.4389 26.8301 54.2876C26.8301 54.1351 27.3295 54.0131 27.944 54.0131C28.561 54.0131 29.0592 54.1351 29.0592 54.2876Z" fill="#F6B499"/>
</g>
<g style="mix-blend-mode:multiply" opacity="0.7">
<path d="M12.2832 33.3358C12.2832 33.3358 14.3777 30.3686 16.9293 33.1161L12.2832 33.3358Z" fill="#F6B499"/>
</g>
<g style="mix-blend-mode:multiply" opacity="0.7">
<path d="M43.2147 33.3358C43.2147 33.3358 41.1201 30.3686 38.5674 33.1161L43.2147 33.3358Z" fill="#F6B499"/>
</g>
<path d="M38.5889 32.894C38.5889 32.894 38.6337 32.8159 38.721 32.6915C38.7998 32.5683 38.961 32.3962 39.1719 32.2352C39.3804 32.0656 39.6592 31.9155 39.978 31.8009C40.1392 31.7472 40.3101 31.702 40.4883 31.6776C40.6677 31.6501 40.8503 31.6403 41.0361 31.6484C41.4046 31.6703 41.778 31.7484 42.0931 31.9143C42.2519 31.99 42.3937 32.0912 42.5186 32.1913C42.6434 32.2938 42.7525 32.3987 42.8337 32.5146C42.9246 32.6183 42.9864 32.7293 43.0337 32.8318C43.0883 32.927 43.121 33.0172 43.1392 33.0966C43.1804 33.2491 43.1925 33.3357 43.1925 33.3357C43.1925 33.3357 43.1113 33.2881 42.9889 33.2088C42.8677 33.1283 42.6931 33.0258 42.4883 32.9355C42.2871 32.8391 42.0495 32.7598 41.7974 32.7025C41.6713 32.6716 41.5407 32.6476 41.4058 32.6305C41.2725 32.6146 41.1343 32.5988 40.9949 32.5951C40.4398 32.5683 39.8604 32.6403 39.3986 32.7269C39.1719 32.7745 38.9767 32.8025 38.8252 32.8464C38.6774 32.8818 38.5889 32.894 38.5889 32.894Z" fill="#B07229"/>
<path d="M16.9083 32.8941C16.9083 32.8941 16.8198 32.8819 16.672 32.8465C16.5204 32.8026 16.3265 32.7733 16.0974 32.7269C15.6368 32.6403 15.0574 32.5683 14.5023 32.5951C14.3641 32.5988 14.2259 32.6147 14.0914 32.6305C13.9563 32.6485 13.8259 32.6725 13.6998 32.7025C13.4477 32.7599 13.2114 32.8392 13.0089 32.9355C12.8053 33.0258 12.6307 33.1283 12.5083 33.2088C12.3871 33.2881 12.3047 33.3357 12.3047 33.3357C12.3047 33.3357 12.3168 33.2491 12.358 33.0966C12.3774 33.0173 12.4101 32.927 12.4635 32.8318C12.5107 32.7294 12.5726 32.6183 12.6647 32.5146C12.7459 32.3987 12.8538 32.295 12.9786 32.1925C13.1035 32.0913 13.2453 31.9912 13.4041 31.9144C13.7192 31.7497 14.0926 31.6704 14.4611 31.6484C14.6465 31.6411 14.8307 31.6484 15.0089 31.6777C15.1871 31.7021 15.3592 31.7472 15.5192 31.8009C15.8392 31.9156 16.1168 32.0656 16.3253 32.2352C16.5362 32.3963 16.6974 32.5683 16.7762 32.6915C16.8635 32.816 16.9083 32.8941 16.9083 32.8941Z" fill="#B07229"/>
<path d="M6.18541 40.9622C6.18541 38.5136 7.57208 30.3918 8.3345 28.2896C14.0763 12.4523 46.2836 16.9945 48.6642 30.5223C49.0388 32.6562 49.2327 39.3298 49.3115 40.9622C50.0739 40.9622 50.3794 39.9081 50.6254 39.0797C51.0969 37.4985 52.9285 27.2465 52.9697 23.1398C53 20.1764 52.0254 15.7879 50.5575 13.9175C49.7575 12.8976 46.3163 10.9504 46.3163 10.9504C46.3163 10.9504 43.3345 5.36139 41.6194 3.89245C34.4351 -2.26023 22.1333 -0.0202186 14.0751 3.11896C7.88238 5.53098 4.56117 13.2733 3.63147 16.748C1.99632 22.858 3.84238 35.9052 4.20965 37.2765C4.46056 38.2135 6.18541 40.9622 6.18541 40.9622Z" fill="#DF9138"/>
<g style="mix-blend-mode:multiply" opacity="0.2">
<path d="M7.32844 8.86536C5.3442 11.7288 4.13571 14.8655 3.63147 16.748C1.99632 22.858 3.84238 35.9052 4.20965 37.2765C4.46056 38.2135 6.18541 40.9622 6.18541 40.9622C6.18541 38.5136 7.57208 30.3918 8.3345 28.2896C9.93814 23.8621 13.6109 21.0304 18.1224 19.5383C15.4436 17.7265 12.463 14.7301 9.9151 12.523C8.52359 11.3164 7.84117 10.671 7.32844 8.86536Z" fill="#CE8633"/>
</g>
<g style="mix-blend-mode:multiply" opacity="0.2">
<path d="M18.7869 6.26051C18.3906 5.47969 17.9821 4.17302 17.793 2.90051C16.9445 8.664 19.7082 14.0212 23.2985 18.4414C25.3118 18.2169 27.3894 18.1998 29.4512 18.3731C27.4924 13.2574 20.6185 9.86208 18.7869 6.26051Z" fill="#CE8633"/>
</g>
<g style="mix-blend-mode:multiply" opacity="0.2">
<path d="M33.6365 12.523C29.7383 8.01252 27.085 2.74316 27.085 2.74316C27.085 2.74316 30.1189 13.571 32.4874 18.7708C36.0837 19.4053 42.2595 22.3016 42.2595 22.3016C42.2595 22.3016 37.2098 16.7187 33.6365 12.523Z" fill="#CE8633"/>
</g>
<g style="mix-blend-mode:multiply" opacity="0.2">
<path d="M48.1978 12.0911C47.2136 11.4579 46.3166 10.9504 46.3166 10.9504C46.3166 10.9504 45.9906 10.3391 45.4924 9.46924C45.1433 12.0655 43.5675 15.3559 42.2912 17.6874C41.3445 19.415 41.2912 19.3772 42.3409 17.846C44.0403 15.3645 46.576 12.1094 48.1978 12.0911Z" fill="#CE8633"/>
</g>
<g style="mix-blend-mode:multiply" opacity="0.2">
<path d="M48.6416 30.4125C48.6497 30.4491 48.6574 30.4857 48.6646 30.5223C49.0392 32.6561 49.2331 39.3298 49.3119 40.9622C50.0743 40.9622 50.3798 39.9081 50.6258 39.0797C50.8889 38.1964 51.5761 34.6106 52.1398 30.8993C50.9628 31.0774 49.7543 30.8932 48.6416 30.4125Z" fill="#CE8633"/>
</g>
<path d="M43.5283 23.1398C43.5283 23.1398 31.8289 14.1359 27.1586 3.09816C27.1586 3.09816 22.692 7.35001 23.8702 11.1748C23.8702 11.1748 16.8702 8.0857 17.7926 2.90051C17.7926 2.90051 11.1768 8.24186 12.7962 15.4547C2.53196 12.5779 3.18167 8.3407 3.18167 8.3407C-2.98439 16.3759 3.79862 29.667 7.38408 32.112C7.38408 32.112 8.57561 27.4697 9.36591 26.1008C11.7259 22.0125 16.4071 20.025 19.3453 19.742C25.4217 19.1527 35.8326 19.3381 43.5283 23.1398Z" fill="#F8A03E"/>
<path opacity="0.4" d="M2.12895 12.5231C2.12895 12.5231 -0.720741 18.8624 5.02956 27.1416C5.02956 27.1416 1.83562 20.7462 2.12895 12.5231Z" fill="#FEFEFE"/>
<path opacity="0.4" d="M16.6506 5.46021C16.6506 5.46021 12.3961 8.52128 14.2519 16.1722C14.2519 16.1722 13.7949 10.743 16.6506 5.46021Z" fill="#FEFEFE"/>
<path opacity="0.4" d="M26.8483 4.83069C26.8483 4.83069 24.418 6.57902 25.4774 10.9504C25.4774 10.9504 25.2168 7.84908 26.8483 4.83069Z" fill="#FEFEFE"/>
</g>
<defs>
<clipPath id="clip0_5_847">
<rect width="56" height="112" fill="white"/>
</clipPath>
</defs>
</svg>
