<svg width="76" height="112" viewBox="0 0 76 112" fill="none" xmlns="http://www.w3.org/2000/svg">
<g clip-path="url(#clip0_5_918)">
<path d="M53.1844 66.1256C53.1844 66.1256 50.412 64.5078 51.2961 61.2076C51.9603 58.7322 54.3827 59.1921 55.554 59.5569C58.6861 60.5329 63.2314 61.4577 66.8005 63.0279C70.4667 64.6396 71.9879 65.0044 71.8541 65.7535C71.7031 66.6002 71.1567 69.499 70.161 69.6418C66.2529 70.2006 59.1551 69.471 53.1844 66.1256Z" fill="#F7BF9E"/>
<g style="mix-blend-mode:multiply" opacity="0.7">
<path d="M66.2579 62.7986C62.7783 61.3662 58.5302 60.4841 55.554 59.5569C54.3827 59.1921 51.9603 58.7322 51.2961 61.2076C50.412 64.5078 53.1844 66.1256 53.1844 66.1256C57.2999 68.4315 61.9508 69.4942 65.7238 69.7491C66.6765 67.5299 66.9172 65.0495 66.2579 62.7986Z" fill="#F6B499"/>
</g>
<path d="M50.1924 60.8356C49.1659 64.6653 52.3827 66.5417 52.3827 66.5417C55.7456 68.4267 59.4155 69.5918 62.8226 70.2214C65.9792 68.456 65.4734 62.4887 65.5704 61.9336C61.9865 60.694 58.0367 59.8241 55.1317 58.9189C53.7726 58.4967 50.961 57.9624 50.1924 60.8356Z" fill="#F2F2F3"/>
<path d="M71.8365 68.1326C71.8365 68.1326 71.1821 70.1273 68.9967 69.6027C67.3576 69.2086 67.3956 66.9125 67.6805 65.8889C68.4429 63.1548 69.9261 56.4336 71.3798 53.1639C72.0072 51.7535 74.3302 52.7576 74.3928 53.5957C74.6334 56.8838 74.2872 62.8168 71.8365 68.1326Z" fill="#F7BF9E"/>
<path d="M71.6581 53.8374C70.8526 53.7581 69.9514 51.6657 69.7943 51.4229C69.6531 51.2033 69.394 50.5066 69.3511 50.2602C69.3339 50.1675 69.4075 50.0613 69.5954 50.0528C70.3308 50.0186 70.9779 51.1582 71.0294 51.1643C71.1596 50.8178 71.0564 50.2175 71.07 50.198C70.9631 49.3244 70.7691 47.6859 70.6488 47.0173C70.6009 46.7416 70.6893 46.3988 70.9054 46.3634C71.0614 46.3378 71.3302 46.4622 71.3867 46.7855C71.5979 47.9592 72.0325 49.7197 72.0632 49.7148C72.1013 48.8413 72.1786 47.1784 72.1701 46.4988C72.1664 46.2194 72.3112 45.8924 72.531 45.8863C72.6882 45.8815 72.935 46.0376 72.9386 46.367C72.9657 47.1222 73.2137 49.6538 73.2849 49.6587C73.4691 48.7595 73.7367 47.4529 73.8227 46.8697C73.8632 46.5927 74.0584 46.2865 74.2769 46.3073C74.4329 46.3231 74.6514 46.511 74.6035 46.8355C74.5188 47.5236 74.3985 48.8327 74.2548 49.832C74.3015 49.8466 75.0885 48.1849 75.3427 47.5175C75.4433 47.2516 75.6901 47.182 75.8154 47.2235C75.9909 47.2796 76.0118 47.5798 75.9259 47.8055C75.711 48.3716 75.2432 49.8271 75.0185 50.5274C75.0676 51.0081 74.9522 52.0537 74.8798 52.4368C74.7644 53.0541 74.6355 53.3188 74.3985 53.5019L73.9417 53.891C73.9417 53.891 72.8024 54.4218 71.6581 53.8374Z" fill="#F7BF9E"/>
<path d="M60.4466 102.651C58.6037 109.737 32.5881 109.795 30.9871 102.651C30.3965 100.018 30.9871 94.2988 30.9871 94.2988H60.4466C60.4466 94.2988 61.0016 100.514 60.4466 102.651Z" fill="#E92670"/>
<g style="mix-blend-mode:multiply" opacity="0.3">
<path d="M60.5804 96.1655C60.5153 95.0723 60.4466 94.2988 60.4466 94.2988H30.9871C30.9871 94.2988 30.9232 94.9125 30.8594 95.8275C40.6068 98.6141 50.9939 98.8728 60.5804 96.1655Z" fill="#E92670"/>
</g>
<path d="M44.1504 111.902L45.6373 99.8098C45.6373 99.8098 34.7861 98.8557 31.9548 99.8098C31.4133 99.9916 30.9873 102.651 30.9873 102.651L31.6331 111.902H44.1504Z" fill="#E92670"/>
<path d="M59.6016 111.902L60.4464 102.651C60.4464 102.651 59.7232 99.9916 59.1805 99.8098C56.3505 98.8557 45.498 99.8098 45.498 99.8098L46.9849 111.902H59.6016Z" fill="#E92670"/>
<path d="M61.0013 94.4281C60.5359 78.9482 61.7171 64.2333 53.2588 59.9583C51.6111 59.1262 48.6608 59.0274 45.6993 59.0274C42.5943 59.0274 38.7169 58.8456 36.7844 59.8131C28.1408 64.1345 31.5196 78.9568 30.3962 94.4281C30.2256 96.7901 61.0725 96.795 61.0013 94.4281Z" fill="#F2F2F3"/>
<g style="mix-blend-mode:multiply">
<path d="M59.4235 92.7897C59.4849 94.8187 36.7868 95.1029 30.4453 93.6523C30.4306 93.9109 30.4143 94.1696 30.3962 94.4282C30.2256 96.7903 61.0725 96.7951 61.0013 94.4282C60.8367 88.9332 60.6219 78.6665 60.6219 78.6665C60.6219 78.6665 59.2995 88.666 59.4235 92.7897Z" fill="#C6D0E9"/>
</g>
<path d="M49.6485 59.1531L45.8497 59.014H41.8545C41.2873 59.5728 40.9668 60.3976 40.9668 61.1394C40.9668 63.0219 42.5175 64.8861 45.7601 64.8861C49.1168 64.8861 50.5546 63.0219 50.5546 61.1394C50.5546 60.3976 50.2169 59.7131 49.6485 59.1531Z" fill="#F1F2F1"/>
<path d="M49.0394 60.4878C49.0394 60.4878 49.0394 63.439 45.6937 63.439C42.4229 63.439 42.4229 60.4878 42.4229 60.4878V54.1082H49.0394V60.4878Z" fill="#F5AC96"/>
<g style="mix-blend-mode:multiply" opacity="0.7">
<path d="M42.4229 54.1082V59.1457C44.5838 59.6533 46.8564 59.8424 49.0394 59.6459V54.1082H42.4229Z" fill="#F6B499"/>
</g>
<path d="M25.1646 38.9967C25.1646 41.2526 23.3242 43.0814 21.054 43.0814C18.7838 43.0814 16.9434 41.2526 16.9434 38.9967C16.9434 36.7408 18.7838 34.912 21.054 34.912C23.3242 34.912 25.1646 36.7408 25.1646 38.9967Z" fill="#F5AC96"/>
<g style="mix-blend-mode:multiply" opacity="0.6">
<path d="M25.165 38.9968C25.165 40.9013 23.6119 42.4446 21.6953 42.4446C19.7787 42.4446 18.2256 40.9013 18.2256 38.9968C18.2256 37.0923 19.7787 35.549 21.6953 35.549C23.6119 35.549 25.165 37.0923 25.165 38.9968Z" fill="#F7BF9E"/>
</g>
<path d="M65.334 38.9967C65.334 41.2526 67.1744 43.0814 69.4446 43.0814C71.7148 43.0814 73.5552 41.2526 73.5552 38.9967C73.5552 36.7408 71.7148 34.912 69.4446 34.912C67.1744 34.912 65.334 36.7408 65.334 38.9967Z" fill="#F5AC96"/>
<g style="mix-blend-mode:multiply" opacity="0.6">
<path d="M65.334 38.9968C65.334 40.9013 66.8884 42.4446 68.8037 42.4446C70.7203 42.4446 72.2734 40.9013 72.2734 38.9968C72.2734 37.0923 70.7203 35.549 68.8037 35.549C66.8884 35.549 65.334 37.0923 65.334 38.9968Z" fill="#F7BF9E"/>
</g>
<path d="M69.2349 28.9448C69.2349 15.6732 58.407 4.91357 45.0512 4.91357C31.6941 4.91357 20.8662 15.6732 20.8662 28.9448C20.8662 32.6415 21.7085 36.1418 23.2088 39.2712C22.6477 40.5072 22.3408 41.8102 22.3408 43.1595C22.3408 51.0093 32.5093 57.373 45.0512 57.373C57.593 57.373 67.7603 51.0093 67.7603 43.1595C67.7603 41.8102 67.4534 40.5072 66.8935 39.2712C68.3938 36.1418 69.2349 32.6415 69.2349 28.9448Z" fill="#F7BF9E"/>
<g style="mix-blend-mode:multiply" opacity="0.7">
<path d="M45.0512 4.91357C31.6941 4.91357 20.8662 15.6732 20.8662 28.9448C20.8662 32.356 21.5832 35.6001 22.8724 38.538C22.9805 38.7844 23.943 39.8325 24.029 38.9967C24.2132 37.1911 25.2641 34.4643 25.6644 33.7579C26.4219 32.4207 27.2937 31.1824 28.1372 29.9099C28.6 29.212 28.7326 28.1518 29.5945 27.7614C30.2674 27.4588 31.2913 27.8114 32.044 27.571C32.4749 24.283 36.2921 26.34 37.984 25.1041C39.1038 24.2867 38.5451 23.5595 40.0553 23.4034C41.1075 23.296 41.8565 23.6962 42.9271 23.0825C44.0947 22.4115 43.6613 21.7026 44.549 20.9474C45.2292 20.3716 45.3151 23.2008 49.1998 22.6957C53.8568 22.0894 55.1902 19.3626 55.5009 18.4902C55.3805 19.0112 55.2909 20.2129 56.5187 21.4366C57.318 22.2346 56.8379 23.3375 57.938 23.9951C58.3591 24.2476 58.7962 24.0219 59.2812 24.3831C59.8276 24.7918 60.0105 25.7166 60.5814 26.1289C61.0234 26.451 61.6864 26.257 62.1542 26.7219C62.6711 27.2331 62.5496 28.0578 62.9105 28.6068C63.3034 29.2047 63.7135 29.1693 64.1555 29.6939C64.956 30.6382 64.7903 31.7704 65.0137 32.9465C65.2016 33.9311 64.9597 35.4818 65.3342 36.4078C65.4914 36.7958 66.341 36.3541 66.535 36.8324C66.7388 37.3326 66.8554 36.3797 67.2729 35.9759C68.314 33.2918 69.2349 31.9937 69.2349 28.9448C69.2349 15.6732 58.407 4.91357 45.0512 4.91357Z" fill="#F6B499"/>
</g>
<g style="mix-blend-mode:multiply" opacity="0.7">
<path d="M69.2353 28.9448C69.2353 21.0255 65.3788 14.0029 59.4314 9.62537C64.8484 14.0322 68.3047 20.7278 68.3047 28.2262C68.3047 31.9217 67.4636 35.4232 65.9633 38.5514C66.5244 39.7873 66.8313 41.0903 66.8313 42.4397C66.8313 50.2907 56.6628 56.6544 44.1209 56.6544C37.2232 56.6544 31.0487 54.7267 26.8828 51.6876C31.0266 55.1416 37.621 57.373 45.0516 57.373C57.5934 57.373 67.7607 51.0093 67.7607 43.1595C67.7607 41.8101 67.4538 40.5071 66.8939 39.2712C68.3943 36.1418 69.2353 32.6415 69.2353 28.9448Z" fill="#F6B499"/>
</g>
<path d="M34.9685 41.5479C34.9685 42.2592 33.4326 42.835 31.5393 42.835C29.6461 42.835 28.1113 42.2592 28.1113 41.5479C28.1113 40.8366 29.6461 40.2595 31.5393 40.2595C33.4326 40.2595 34.9685 40.8366 34.9685 41.5479Z" fill="#F09694"/>
<path d="M61.991 41.5479C61.991 42.2592 60.4562 42.835 58.563 42.835C56.6685 42.835 55.1338 42.2592 55.1338 41.5479C55.1338 40.8366 56.6685 40.2595 58.563 40.2595C60.4562 40.2595 61.991 40.8366 61.991 41.5479Z" fill="#F09694"/>
<g style="mix-blend-mode:multiply" opacity="0.7">
<path d="M43.6133 42.3141C43.6133 42.8131 44.2566 43.2181 45.051 43.2181C45.8454 43.2181 46.4888 42.8131 46.4888 42.3141H43.6133Z" fill="#F6B499"/>
</g>
<path d="M28.6051 38.2159C28.6051 38.2159 28.5928 38.0732 28.5719 37.8243C28.5707 37.6998 28.5363 37.5534 28.583 37.3729C28.6272 37.2008 28.6211 36.9702 28.7352 36.7714C28.7861 36.6664 28.838 36.557 28.8912 36.4432C28.944 36.3285 29.0496 36.2431 29.1318 36.1369C29.2951 35.9125 29.548 35.7685 29.7948 35.6062C30.0625 35.4928 30.34 35.3549 30.6395 35.3134C30.9453 35.2329 31.2166 35.2402 31.5616 35.2122C31.8489 35.2414 32.108 35.2305 32.4284 35.3122C32.7427 35.3537 33.0165 35.4928 33.2854 35.605C33.5322 35.7685 33.7851 35.9112 33.9484 36.1357C34.0307 36.2431 34.135 36.3273 34.1891 36.4432C34.2431 36.5562 34.2947 36.6652 34.3438 36.7702C34.4604 36.9715 34.4506 37.1923 34.4948 37.3643C34.5427 37.5388 34.5095 37.6974 34.5071 37.8243C34.4911 38.0768 34.4751 38.2159 34.4751 38.2159C34.4751 38.2159 34.4383 38.078 34.3732 37.8377C34.3401 37.7206 34.3241 37.5742 34.2443 37.4265C34.2108 37.3525 34.1748 37.2735 34.1363 37.1898C34.1043 37.1057 34.0651 37.0203 33.9988 36.9471C33.8846 36.7885 33.7692 36.6201 33.5924 36.492C33.4475 36.3334 33.2203 36.2577 33.0251 36.1382C32.798 36.065 32.5684 35.9832 32.3265 35.9527C32.1055 35.8917 31.7937 35.9051 31.5186 35.8844C31.3013 35.9064 31.0005 35.8881 30.7648 35.9515C30.5082 35.982 30.2822 36.065 30.0539 36.1382C29.8587 36.2565 29.6315 36.3322 29.4866 36.492C29.3098 36.6201 29.1932 36.7872 29.0802 36.9471C29.0139 37.0215 28.9747 37.1044 28.944 37.1862C28.9064 37.2674 28.8708 37.3448 28.8371 37.418C28.7561 37.5607 28.7401 37.7193 28.7058 37.8365C28.6407 38.078 28.6051 38.2159 28.6051 38.2159Z" fill="#BA4423"/>
<path d="M55.4283 38.2159C55.4283 38.2159 55.4161 38.0732 55.3952 37.8243C55.394 37.6998 55.3596 37.5534 55.4062 37.3729C55.4504 37.2008 55.4443 36.9702 55.5585 36.7714C55.6085 36.6664 55.6604 36.5574 55.7144 36.4444C55.7672 36.3285 55.8728 36.2431 55.9551 36.1369C56.1184 35.9125 56.3701 35.7685 56.6181 35.6062C56.8857 35.4928 57.1632 35.3549 57.4628 35.3134C57.7587 35.2329 58.0607 35.2402 58.3627 35.2122C58.693 35.2427 58.9214 35.2305 59.2517 35.311C59.566 35.3537 59.8398 35.4928 60.1087 35.605C60.3554 35.7673 60.6084 35.9112 60.7717 36.1357C60.8539 36.2431 60.9583 36.3273 61.0123 36.4432C61.0663 36.5562 61.1179 36.6652 61.167 36.7702C61.2824 36.9715 61.2738 37.1923 61.318 37.3643C61.3647 37.5388 61.3315 37.6974 61.3303 37.8243C61.3143 38.0768 61.2972 38.2159 61.2972 38.2159C61.2972 38.2159 61.2603 38.078 61.1965 37.8377C61.1621 37.7206 61.1474 37.5742 61.0676 37.4265C61.0332 37.3525 60.9972 37.2735 60.9595 37.1898C60.9276 37.1057 60.8883 37.0203 60.8208 36.9471C60.7078 36.7885 60.5912 36.6201 60.4144 36.492C60.2707 36.3334 60.0436 36.2565 59.8484 36.1382C59.6212 36.065 59.3904 35.9832 59.1498 35.9527C58.9386 35.8917 58.5948 35.9039 58.3627 35.8844C58.1025 35.9051 57.8323 35.8881 57.588 35.9515C57.3314 35.982 57.1055 36.065 56.8771 36.1382C56.6819 36.2565 56.4548 36.3322 56.3099 36.492C56.1331 36.6201 56.0164 36.7872 55.9035 36.9471C55.836 37.0215 55.7979 37.1044 55.766 37.1862C55.7291 37.2674 55.6939 37.3448 55.6604 37.418C55.5794 37.5607 55.5622 37.7193 55.529 37.8365C55.4639 38.078 55.4283 38.2159 55.4283 38.2159Z" fill="#BA4423"/>
<g style="mix-blend-mode:multiply" opacity="0.7">
<path d="M46.378 52.5953C46.378 52.7466 45.8722 52.8698 45.2485 52.8698C44.626 52.8698 44.1201 52.7466 44.1201 52.5953C44.1201 52.444 44.626 52.3208 45.2485 52.3208C45.8722 52.3208 46.378 52.444 46.378 52.5953Z" fill="#F6B499"/>
</g>
<g style="mix-blend-mode:multiply" opacity="0.7">
<path d="M29.3857 31.6448C29.3857 31.6448 31.5074 28.6764 34.0919 31.424L29.3857 31.6448Z" fill="#F6B499"/>
</g>
<g style="mix-blend-mode:multiply" opacity="0.7">
<path d="M60.7161 31.6448C60.7161 31.6448 58.5945 28.6764 56.0088 31.424L60.7161 31.6448Z" fill="#F6B499"/>
</g>
<path d="M56.0312 31.2031C56.0312 31.2031 56.0767 31.1238 56.1651 30.9993C56.2461 30.8773 56.4082 30.7041 56.623 30.5431C56.833 30.3735 57.1154 30.2234 57.4395 30.1087C57.6016 30.055 57.7759 30.0099 57.9564 29.9855C58.1374 29.9587 58.3219 29.9489 58.5102 29.9562C58.8846 29.9794 59.2628 30.0575 59.582 30.2234C59.7416 30.299 59.8853 30.4003 60.0117 30.5004C60.1382 30.6041 60.2487 30.7078 60.331 30.8237C60.423 30.9274 60.4857 31.0384 60.5335 31.1409C60.5888 31.236 60.6219 31.3263 60.6404 31.4044C60.6821 31.5581 60.6944 31.6448 60.6944 31.6448C60.6944 31.6448 60.6121 31.5972 60.4881 31.5166C60.3653 31.4373 60.1885 31.3349 59.981 31.2434C59.7772 31.147 59.5366 31.0689 59.2812 31.0103C59.1535 30.9802 59.0214 30.9566 58.8846 30.9396C58.7496 30.9225 58.6096 30.9066 58.4696 30.9042C57.9073 30.8773 57.3192 30.9493 56.8526 31.0347C56.6218 31.0823 56.4254 31.1116 56.2719 31.1543C56.1221 31.1897 56.0312 31.2031 56.0312 31.2031Z" fill="#BA4423"/>
<path d="M34.0701 31.2031C34.0701 31.2031 33.9805 31.1897 33.8307 31.1543C33.6772 31.1116 33.4808 31.0823 33.2499 31.0347C32.7822 30.9493 32.1953 30.8773 31.633 30.9042C31.493 30.9066 31.353 30.9225 31.2167 30.9396C31.0808 30.9566 30.9487 30.9802 30.8202 31.0103C30.5648 31.0689 30.3241 31.147 30.1203 31.2434C29.9141 31.3349 29.7372 31.4373 29.6145 31.5166C29.4905 31.5972 29.4082 31.6448 29.4082 31.6448C29.4082 31.6448 29.4193 31.5581 29.461 31.4044C29.4806 31.3263 29.5138 31.236 29.5678 31.1409C29.6157 31.0384 29.6795 30.9274 29.7716 30.8237C29.8539 30.7078 29.9632 30.6041 30.0896 30.5004C30.2161 30.4003 30.3597 30.299 30.5206 30.2234C30.8398 30.0575 31.218 29.9794 31.5912 29.9562C31.7803 29.9489 31.9653 29.9587 32.1462 29.9855C32.3267 30.0099 32.501 30.055 32.6631 30.1087C32.9872 30.2234 33.2684 30.3735 33.4795 30.5431C33.6932 30.7041 33.8565 30.8773 33.9363 30.9993C34.0247 31.1238 34.0701 31.2031 34.0701 31.2031Z" fill="#BA4423"/>
<path d="M49.1994 21.3988C45.3147 21.9027 45.2288 19.0734 44.5486 19.6505C43.6609 20.4057 44.0943 21.1146 42.9267 21.7844C41.856 22.398 41.1071 21.9991 40.0549 22.1052C38.5447 22.2614 39.1034 22.9885 37.9836 23.806C36.2917 25.0431 32.4745 22.9861 32.0436 26.2729C31.2909 26.5145 30.267 26.1607 29.5941 26.4645C28.7322 26.8536 28.5996 27.9151 28.1368 28.6117C27.2933 29.8855 26.4215 31.1226 25.664 32.461C25.0783 33.4931 23.0992 38.8564 24.4816 39.3201C24.4792 39.3323 24.489 39.7202 24.4816 39.7092C23.1458 40.0021 22.2016 37.9841 21.5656 37.1301C21.1433 36.5664 20.5797 36.1211 20.1512 35.5184C19.1113 34.0592 19.0573 33.7676 19.4207 32.3609C19.5987 31.6716 20.0997 31.2909 19.7215 30.4821C19.3384 29.661 18.6398 29.8867 18.5453 28.7533C18.3906 26.8793 19.5152 26.2229 18.8314 24.089C18.5772 23.2948 18.0505 22.4005 18.2752 21.5355C18.5121 20.6326 19.3777 20.0714 19.5631 19.0698C19.8615 17.4447 19.0094 15.284 19.9929 14.0261C20.6141 13.2294 21.9192 13.055 22.5872 12.2888C23.3251 11.4396 23.2305 10.2684 23.524 9.25327C24.2643 6.68874 26.5075 7.91977 28.2964 6.5155C29.4149 5.63706 29.6936 3.97659 30.6083 2.89441C31.8434 1.43523 32.0951 1.90983 33.5366 2.14896C35.4802 2.47593 35.8252 1.29005 37.4495 0.579983C38.8406 -0.0251583 39.1844 0.651958 40.3704 1.03017C42.2023 1.61335 41.9739 0.526295 43.5553 0.146862C44.5032 -0.0800662 44.9206 0.526294 45.866 0.770303C47.4646 1.18146 48.6862 -0.0678575 50.0933 0.00290507C51.2388 0.0602471 51.4107 0.91061 52.3438 1.50477C54.2898 2.74189 56.3304 1.38398 57.6454 3.43975C58.3207 4.49753 58.2912 4.82574 59.4601 5.32107C60.5565 5.78469 61.1667 5.65293 61.8567 6.76682C62.3589 7.57571 62.3576 8.77258 62.9028 9.51558C63.5265 10.3647 64.4326 10.1634 65.1349 10.6978C66.6058 11.8202 66.3234 13.9846 67.7845 15.1839C68.5813 15.8403 69.1227 15.8916 69.4211 16.9408C69.6924 17.89 69.3928 19.071 69.6728 19.9433C69.8778 20.5777 70.2142 20.7485 70.2855 21.5318C70.3616 22.3688 69.8594 23.3106 70.2437 24.1317C70.6403 24.9784 71.372 25.0504 71.5943 25.8862C71.7834 26.5938 71.5771 28.1225 71.4494 28.8692C71.237 30.1112 70.9804 31.7277 70.5507 32.9197C69.5083 33.0563 69.2603 34.4082 68.7274 35.139C67.9993 36.1431 66.9127 36.5164 66.7728 37.8267C66.7052 37.8182 66.4597 37.8279 66.3909 37.8365C66.1785 37.2862 66.4192 36.6201 66.2153 36.1187C66.0214 35.6416 65.4909 35.4977 65.3338 35.1109C64.9593 34.1849 65.2012 32.633 65.0133 31.6496C64.7899 30.4735 64.9556 29.3413 64.1551 28.397C63.7131 27.8724 63.303 27.9078 62.9101 27.3087C62.5492 26.7609 62.6707 25.9362 62.1538 25.425C61.686 24.9601 61.023 25.1529 60.581 24.832C60.0101 24.4197 59.8272 23.4936 59.2808 23.0849C58.7958 22.7238 58.3587 22.9507 57.9376 22.6982C56.8375 22.0381 57.3176 20.9377 56.5183 20.1397C54.8841 18.5085 55.5839 16.9213 55.5839 16.9213C55.5839 16.9213 54.7638 20.6729 49.1994 21.3988Z" fill="#BA4423"/>
<g style="mix-blend-mode:multiply" opacity="0.4">
<path d="M23.7335 28.7471C22.8397 26.3754 20.8666 28.9448 18.9193 26.3864C18.7425 27.1013 18.4638 27.754 18.5461 28.7532C18.6406 29.8867 19.3392 29.6609 19.7223 30.482C20.1005 31.2909 19.5995 31.6716 19.4215 32.3609C19.0581 33.7676 19.1133 34.0592 20.152 35.5184C20.5805 36.1211 21.1441 36.5664 21.5664 37.1301C22.2024 37.9841 23.1466 40.002 24.4824 39.7092C24.4898 39.7202 24.48 39.3322 24.4824 39.32C23.0999 38.8564 25.0791 33.4931 25.6648 32.4609C26.1927 31.5264 26.7784 30.6419 27.3702 29.7598C27.1885 29.5585 27.0092 29.3645 26.8312 29.1864C25.946 28.7471 23.7335 29.6268 23.7335 28.7471Z" fill="#BA4423"/>
</g>
<g style="mix-blend-mode:multiply" opacity="0.4">
<path d="M67.9724 28.2335C65.5082 28.5616 64.2927 25.5555 62.6475 26.601C62.7064 26.8548 62.7739 27.1013 62.9102 27.3087C63.3031 27.9077 63.7132 27.8723 64.1552 28.3969C64.9557 29.3413 64.79 30.4735 65.0134 31.6496C65.2013 32.6329 64.9594 34.1848 65.3339 35.1108C65.491 35.4976 66.0214 35.6416 66.2154 36.1186C66.4192 36.62 66.1786 37.2862 66.391 37.8364C66.4597 37.8279 66.7053 37.8181 66.7728 37.8267C66.9128 36.5163 67.9994 36.143 68.7275 35.1389C69.2603 34.4081 69.5083 33.0563 70.5507 32.9196C70.9804 31.7277 71.2371 30.1111 71.4495 28.8691C71.5772 28.1224 71.7834 26.5937 71.5943 25.8861C71.4384 25.3041 71.0382 25.0882 70.6747 24.7283C69.4248 24.9137 69.4199 28.0419 67.9724 28.2335Z" fill="#BA4423"/>
</g>
<path d="M55.501 17.1921C55.5624 17.0213 55.5845 16.9213 55.5845 16.9213C55.5845 16.9213 55.5415 17.0189 55.501 17.1921Z" fill="#BA4423"/>
<g style="mix-blend-mode:multiply" opacity="0.4">
<path d="M58.8302 17.6106C58.8302 17.6106 58.8781 17.6484 58.9493 17.7192C59.0242 17.7851 59.1212 17.8522 59.2292 17.9412C59.4551 18.1096 59.7265 18.295 59.9745 18.4146C60.0368 18.4463 60.0985 18.4739 60.1599 18.4976C60.2213 18.5195 60.2814 18.5513 60.3453 18.5635C60.4091 18.583 60.4742 18.5891 60.5405 18.611C60.6056 18.6098 60.6756 18.6257 60.7431 18.6318C60.8745 18.633 61.0071 18.6428 61.1016 18.6342C61.1986 18.633 61.2637 18.6367 61.2637 18.6367C61.2551 18.6269 61.206 18.8807 60.9174 19.1064C60.775 19.2162 60.5675 19.3174 60.3232 19.337C60.2016 19.3467 60.0715 19.354 59.945 19.3235C59.8173 19.3028 59.6946 19.254 59.5804 19.2015C59.4662 19.143 59.3606 19.0746 59.2698 18.9941C59.1764 18.9173 59.1028 18.8221 59.0352 18.7355C58.9002 18.5573 58.8277 18.3597 58.7897 18.1901C58.7553 18.0218 58.7602 17.8607 58.7811 17.7631C58.8069 17.6679 58.8302 17.6106 58.8302 17.6106Z" fill="#BA4423"/>
</g>
<g style="mix-blend-mode:multiply" opacity="0.4">
<path d="M24.773 25.4006C24.773 25.4006 24.8221 25.4385 24.8933 25.508C24.967 25.5739 25.0652 25.641 25.1733 25.7313C25.3979 25.8996 25.6693 26.0839 25.9185 26.2046C25.9808 26.2364 26.0422 26.2639 26.1027 26.2876C26.1653 26.3096 26.2255 26.3401 26.2893 26.3535C26.3519 26.3718 26.417 26.3791 26.4845 26.3999C26.5496 26.3999 26.6184 26.4145 26.6871 26.4218C26.8185 26.4218 26.9511 26.4316 27.0456 26.4243C27.1426 26.423 27.2065 26.4255 27.2065 26.4255C27.1991 26.4157 27.15 26.6707 26.8615 26.8952C26.719 27.005 26.5115 27.1063 26.266 27.127C26.1444 27.1368 26.0155 27.1429 25.8891 27.1136C25.7614 27.0928 25.6386 27.044 25.5232 26.9904C25.409 26.9318 25.3034 26.8647 25.2138 26.7829C25.1205 26.7061 25.0468 26.6121 24.9793 26.5243C24.843 26.3474 24.7705 26.1485 24.7337 25.9802C24.6993 25.8118 24.703 25.6495 24.7239 25.5531C24.7509 25.4568 24.773 25.4006 24.773 25.4006Z" fill="#BA4423"/>
</g>
<g style="mix-blend-mode:multiply" opacity="0.4">
<path d="M23.2332 15.6757C23.2332 15.6757 23.2197 15.7354 23.1878 15.8306C23.1596 15.9258 23.1424 16.0417 23.1092 16.1771C23.0552 16.4516 23.0061 16.7749 23.0073 17.0506C23.0057 17.1197 23.0078 17.1868 23.0134 17.252C23.0208 17.3166 23.0184 17.3837 23.0343 17.4459C23.0454 17.5106 23.0675 17.5728 23.0773 17.6411C23.1068 17.6997 23.1227 17.768 23.146 17.8315C23.2038 17.9486 23.2541 18.0718 23.302 18.1536C23.3462 18.239 23.3707 18.2975 23.3707 18.2975C23.3769 18.2866 23.1239 18.3537 22.7949 18.1951C22.6328 18.1157 22.4511 17.9754 22.3247 17.7656C22.262 17.6607 22.2006 17.5484 22.1724 17.4215C22.1343 17.2983 22.1245 17.1678 22.1221 17.0421C22.1258 16.914 22.1405 16.7908 22.1749 16.6737C22.2031 16.5565 22.2559 16.4504 22.3062 16.3516C22.4069 16.1527 22.5543 16.0014 22.6905 15.894C22.828 15.7879 22.9766 15.722 23.0736 15.6976C23.1718 15.6793 23.2332 15.6757 23.2332 15.6757Z" fill="#BA4423"/>
</g>
<g style="mix-blend-mode:multiply" opacity="0.4">
<path d="M25.6669 21.4427C25.6669 21.4427 25.7148 21.4806 25.786 21.5501C25.8597 21.6172 25.9579 21.6831 26.066 21.7734C26.2906 21.9417 26.562 22.1272 26.8112 22.2468C26.8726 22.2785 26.934 22.3061 26.9954 22.3297C27.058 22.3517 27.1169 22.3834 27.182 22.3956C27.2446 22.4151 27.3097 22.4212 27.3772 22.442C27.4423 22.442 27.5111 22.4578 27.5786 22.4639C27.7112 22.4639 27.8438 22.4749 27.9383 22.4664C28.0341 22.4651 28.0992 22.4676 28.0992 22.4676C28.0918 22.4578 28.0415 22.7128 27.7529 22.9385C27.6105 23.0471 27.4042 23.1484 27.1587 23.1691C27.0371 23.1789 26.9082 23.1862 26.7818 23.1557C26.6541 23.135 26.5313 23.0861 26.4159 23.0337C26.3017 22.9751 26.1961 22.9068 26.1052 22.8263C26.0119 22.7494 25.9395 22.6543 25.872 22.5676C25.7357 22.3895 25.6632 22.1919 25.6252 22.0223C25.592 21.8527 25.5957 21.6916 25.6166 21.5953C25.6436 21.5001 25.6669 21.4427 25.6669 21.4427Z" fill="#BA4423"/>
</g>
<g opacity="0.4">
<path d="M31.8817 14.8728C31.8817 14.8728 31.8216 14.8582 31.727 14.8252C31.6313 14.7972 31.5146 14.7776 31.3783 14.741C31.1033 14.6837 30.7779 14.6312 30.5017 14.6276C30.4321 14.6243 30.3646 14.6251 30.2991 14.63C30.2328 14.6361 30.1653 14.6337 30.1027 14.6495C30.0364 14.6581 29.975 14.68 29.905 14.6886C29.8461 14.7166 29.7773 14.7325 29.7135 14.7545C29.5931 14.8106 29.4691 14.8569 29.3869 14.9033C29.2997 14.946 29.2395 14.9704 29.2395 14.9704C29.2506 14.9753 29.1867 14.724 29.3525 14.3982C29.3942 14.3201 29.4532 14.2359 29.5219 14.1542C29.6017 14.0847 29.6815 13.9907 29.792 13.9383C29.8989 13.8785 30.013 13.8175 30.1395 13.7918C30.2647 13.7565 30.3961 13.7479 30.5226 13.7479C30.6515 13.754 30.7755 13.7699 30.8921 13.8065C31.01 13.8358 31.1168 13.8907 31.215 13.9407C31.4139 14.0444 31.5637 14.1945 31.6705 14.3311C31.7737 14.469 31.8388 14.6178 31.8609 14.7142C31.878 14.8118 31.8817 14.8728 31.8817 14.8728Z" fill="#DA836D"/>
</g>
<g opacity="0.4">
<path d="M44.9459 13.3978C44.9459 13.3978 44.8858 13.3844 44.7925 13.3502C44.6967 13.3222 44.5801 13.3027 44.4438 13.2673C44.1675 13.2087 43.8434 13.1563 43.5659 13.1526C43.4964 13.1502 43.4289 13.1514 43.3633 13.1563C43.2982 13.1624 43.2307 13.1587 43.1669 13.1746C43.1018 13.1843 43.0404 13.2051 42.9704 13.2148C42.9115 13.2429 42.8427 13.2575 42.7777 13.2795C42.6586 13.3356 42.5346 13.382 42.4523 13.4296C42.3651 13.471 42.305 13.4954 42.305 13.4954C42.316 13.5015 42.2522 13.2502 42.4179 12.9245C42.4605 12.8439 42.517 12.7622 42.5873 12.6792C42.6672 12.6097 42.747 12.5157 42.8575 12.4645C42.9631 12.4035 43.0785 12.3437 43.2049 12.3181C43.3289 12.2815 43.4615 12.2742 43.588 12.2742C43.7174 12.2782 43.8406 12.2974 43.9576 12.3315C44.0754 12.362 44.181 12.4157 44.2805 12.4669C44.4794 12.5706 44.6292 12.7195 44.7348 12.8561C44.8391 12.9952 44.903 13.1428 44.9263 13.2392C44.9422 13.3368 44.9459 13.3978 44.9459 13.3978Z" fill="#DA836D"/>
</g>
<g opacity="0.4">
<path d="M34.1803 5.20885C34.1803 5.20885 34.1214 5.19544 34.0268 5.16128C33.9311 5.13322 33.8144 5.1137 33.6781 5.0771C33.4019 5.01976 33.0778 4.9673 32.8003 4.96364C32.7307 4.9612 32.6631 4.962 32.5977 4.96606C32.5326 4.97338 32.4651 4.96974 32.4012 4.9856C32.3362 4.99414 32.2748 5.01609 32.2048 5.02585C32.1459 5.05391 32.0771 5.06856 32.012 5.09052C31.8929 5.14664 31.7677 5.19299 31.6867 5.24057C31.5995 5.28206 31.5393 5.30647 31.5393 5.30647C31.5504 5.31135 31.4865 5.06002 31.6523 4.73427C31.694 4.65619 31.7517 4.572 31.8217 4.49026C31.9015 4.42072 31.9813 4.32677 32.0918 4.27553C32.1974 4.21453 32.3116 4.15474 32.4393 4.12789C32.5633 4.09373 32.6959 4.08521 32.8224 4.08521C32.9513 4.09009 33.0753 4.10715 33.1919 4.14254C33.3098 4.17182 33.4154 4.22672 33.5148 4.27796C33.7137 4.38044 33.8635 4.53052 33.9704 4.66717C34.0735 4.80503 34.1373 4.95388 34.1607 5.05026C34.1779 5.14786 34.1803 5.20885 34.1803 5.20885Z" fill="#DA836D"/>
</g>
<g opacity="0.4">
<path d="M58.2638 11.5921C58.2638 11.5921 58.2282 11.5421 58.1791 11.4554C58.1263 11.3713 58.0514 11.2798 57.974 11.1638C57.8046 10.9394 57.5959 10.6868 57.3908 10.5026C57.3401 10.4546 57.2885 10.4111 57.2361 10.372C57.1833 10.333 57.1342 10.2866 57.0765 10.2573C57.0212 10.2207 56.9611 10.1964 56.9022 10.1573C56.8395 10.1402 56.7769 10.1048 56.7143 10.0792C56.5878 10.0438 56.4626 9.99749 56.3705 9.97796C56.2772 9.95234 56.2158 9.9316 56.2158 9.9316C56.2207 9.94258 56.3398 9.712 56.6799 9.57657C56.8481 9.51069 57.074 9.47165 57.3159 9.51923C57.4362 9.54363 57.5615 9.57413 57.6744 9.63757C57.7911 9.69247 57.8954 9.773 57.9912 9.85718C58.0833 9.94502 58.1668 10.039 58.2306 10.1427C58.2981 10.2415 58.3423 10.3525 58.3829 10.455C58.4627 10.6636 58.4762 10.8735 58.4651 11.0467C58.4504 11.2175 58.4013 11.3713 58.3546 11.4591C58.3018 11.5433 58.2638 11.5921 58.2638 11.5921Z" fill="#DA836D"/>
</g>
<g opacity="0.4">
<path d="M51.9942 4.33891C51.9942 4.33891 51.9586 4.28888 51.9095 4.20226C51.8567 4.11808 51.7818 4.02659 51.7033 3.91068C51.535 3.6862 51.3263 3.43243 51.1213 3.2482C51.0706 3.20102 51.019 3.15751 50.9666 3.11766C50.9138 3.07983 50.8647 3.03347 50.807 3.00297C50.7517 2.96637 50.6916 2.94319 50.6326 2.90415C50.57 2.88585 50.5074 2.85169 50.4448 2.82606C50.3183 2.78946 50.1931 2.74309 50.101 2.72601C50.0077 2.69917 49.9463 2.67843 49.9463 2.67843C49.9512 2.68941 50.0703 2.45883 50.4104 2.32341C50.5786 2.25752 50.8045 2.21847 51.0464 2.26605C51.1655 2.29045 51.2919 2.31975 51.4049 2.38441C51.5215 2.43931 51.6259 2.51982 51.7217 2.60278C51.8138 2.69063 51.8972 2.7858 51.9611 2.88829C52.0286 2.98833 52.0728 3.09935 52.1133 3.20184C52.1931 3.41047 52.2066 3.6203 52.1956 3.79355C52.1821 3.96435 52.1318 4.11808 52.0851 4.20592C52.0323 4.2901 51.9942 4.33891 51.9942 4.33891Z" fill="#DA836D"/>
</g>
<g opacity="0.4">
<path d="M38.3993 17.6082C38.3993 17.6082 38.3391 17.5947 38.2446 17.5606C38.1488 17.5325 38.0322 17.513 37.8959 17.4776C37.6209 17.419 37.2955 17.3666 37.0193 17.3629C36.9497 17.3596 36.8823 17.3605 36.8167 17.3654C36.7504 17.3715 36.6829 17.3678 36.6202 17.3849C36.5539 17.3934 36.4926 17.4154 36.4226 17.4239C36.3636 17.452 36.2949 17.4666 36.2298 17.4898C36.1107 17.5447 35.9867 17.5923 35.9044 17.6399C35.8173 17.6814 35.7571 17.7058 35.7571 17.7058C35.7682 17.7106 35.7043 17.4593 35.8701 17.1336C35.9118 17.0543 35.9707 16.9713 36.0395 16.8896C36.1193 16.8188 36.1991 16.7261 36.3096 16.6736C36.4164 16.6138 36.5306 16.554 36.6583 16.5272C36.7823 16.4918 36.9137 16.4833 37.0414 16.4833C37.1691 16.4894 37.2931 16.5052 37.4097 16.5406C37.5276 16.5711 37.6344 16.626 37.7326 16.676C37.9315 16.781 38.0813 16.9298 38.1881 17.0665C38.2913 17.2043 38.3563 17.3532 38.3784 17.4496C38.3956 17.5472 38.3993 17.6082 38.3993 17.6082Z" fill="#DA836D"/>
</g>
<g opacity="0.4">
<path d="M43.1814 6.42519C43.1814 6.42519 43.1212 6.41177 43.0267 6.37882C42.9309 6.34954 42.8143 6.33001 42.678 6.29464C42.4029 6.2373 42.0776 6.18484 41.8013 6.17996C41.7317 6.17752 41.6638 6.17874 41.5975 6.18362C41.5324 6.18972 41.4649 6.18726 41.4023 6.20191C41.336 6.21167 41.2746 6.23364 41.2046 6.24218C41.1469 6.27024 41.0769 6.28487 41.0119 6.30805C40.8928 6.36295 40.7688 6.40933 40.6865 6.45691C40.5993 6.49839 40.5404 6.52278 40.5404 6.52278C40.5514 6.52888 40.4876 6.27756 40.6521 5.95181C40.7344 5.79198 40.878 5.61386 41.0917 5.49185C41.1985 5.43085 41.3127 5.37106 41.4391 5.34544C41.5644 5.31005 41.6957 5.30151 41.8234 5.30151C41.9519 5.30559 42.0746 5.32471 42.1918 5.35887C42.3096 5.38937 42.4164 5.44305 42.5147 5.49429C42.7136 5.598 42.8634 5.74684 42.9702 5.88471C43.0733 6.02257 43.1372 6.1702 43.1605 6.26658C43.1777 6.36418 43.1814 6.42519 43.1814 6.42519Z" fill="#DA836D"/>
</g>
<g opacity="0.4">
<path d="M28.528 10.3123C28.528 10.3123 28.4679 10.2989 28.3733 10.2647C28.2776 10.2366 28.1609 10.2171 28.0259 10.1817C27.7496 10.1232 27.4255 10.0707 27.148 10.067C27.0785 10.0646 27.011 10.0658 26.9454 10.0707C26.8804 10.0756 26.8128 10.0731 26.749 10.089C26.6839 10.0975 26.6225 10.1195 26.5525 10.128C26.4936 10.1561 26.4236 10.1707 26.3598 10.1939C26.2407 10.2488 26.1154 10.2964 26.0344 10.344C25.9472 10.3855 25.8871 10.4099 25.8871 10.4099C25.8981 10.4147 25.8343 10.1634 25.9988 9.83767C26.0421 9.75797 26.0991 9.67663 26.1695 9.59367C26.2493 9.52412 26.3291 9.43018 26.4396 9.37772C26.5452 9.31794 26.6593 9.25815 26.787 9.23253C26.911 9.19593 27.0436 9.1886 27.1701 9.1886C27.2978 9.19348 27.423 9.21057 27.5397 9.24595C27.6575 9.27645 27.7631 9.33014 27.8626 9.38138C28.0603 9.48508 28.2113 9.63392 28.3169 9.77056C28.42 9.90964 28.4851 10.0573 28.5072 10.1537C28.5244 10.2513 28.528 10.3123 28.528 10.3123Z" fill="#DA836D"/>
</g>
<g style="mix-blend-mode:multiply" opacity="0.4">
<path d="M34.5107 21.3695C34.5107 21.3695 34.5721 21.3659 34.6728 21.3695C34.7723 21.3695 34.8889 21.3537 35.0301 21.3476C35.31 21.3219 35.6366 21.2768 35.9018 21.1987C35.969 21.1808 36.0332 21.16 36.0946 21.1365C36.156 21.1109 36.221 21.0938 36.2763 21.0609C36.3365 21.0328 36.3893 20.9938 36.4531 20.9645C36.501 20.9206 36.5624 20.8852 36.6164 20.8449C36.7146 20.7571 36.8202 20.6753 36.8828 20.6058C36.954 20.5411 37.0044 20.4996 37.0044 20.4996C36.9921 20.4984 37.1284 20.7192 37.067 21.0792C37.0363 21.2548 36.9516 21.4684 36.7846 21.6477C36.7011 21.7368 36.6103 21.827 36.4961 21.8905C36.388 21.9613 36.264 22.0076 36.1425 22.0442C36.0185 22.0772 35.8945 22.0979 35.7729 22.0991C35.6526 22.104 35.5335 22.0833 35.4242 22.0637C35.2044 22.0235 35.0166 21.9246 34.8742 21.8258C34.7342 21.7246 34.6274 21.6013 34.5783 21.5159C34.5328 21.4281 34.5107 21.3695 34.5107 21.3695Z" fill="#BA4423"/>
</g>
<g style="mix-blend-mode:multiply" opacity="0.4">
<path d="M48.4795 19.232C48.4795 19.232 48.5409 19.2283 48.6416 19.232C48.741 19.232 48.8576 19.2149 48.9988 19.21C49.2788 19.1832 49.6054 19.138 49.8706 19.0612C49.9377 19.0432 50.0019 19.0221 50.0633 18.9977C50.1235 18.9721 50.1898 18.955 50.2451 18.9221C50.3052 18.894 50.358 18.855 50.4219 18.8269C50.4697 18.7818 50.5311 18.7476 50.5851 18.7074C50.6834 18.6195 50.7877 18.5365 50.8528 18.4682C50.9228 18.4023 50.9731 18.3621 50.9731 18.3621C50.9608 18.3596 51.0971 18.5805 51.0357 18.9404C51.0051 19.1173 50.9203 19.3296 50.7534 19.5089C50.6699 19.598 50.5778 19.6895 50.4648 19.7517C50.3568 19.8225 50.2328 19.8688 50.1112 19.9067C49.9872 19.9396 49.8632 19.9603 49.7417 19.9603C49.6201 19.9664 49.5022 19.9457 49.393 19.9262C49.172 19.8847 48.9841 19.7871 48.8417 19.6883C48.7017 19.5858 48.5961 19.4638 48.5458 19.3784C48.5004 19.2893 48.4795 19.232 48.4795 19.232Z" fill="#BA4423"/>
</g>
<g style="mix-blend-mode:multiply" opacity="0.4">
<path d="M53.0908 15.0558C53.0908 15.0558 53.1522 15.0521 53.2529 15.0558C53.3523 15.0558 53.4702 15.0399 53.6102 15.0338C53.8913 15.007 54.2167 14.9619 54.4819 14.8838C54.5491 14.8658 54.6133 14.8451 54.6747 14.8216C54.7348 14.7972 54.8011 14.7801 54.8564 14.7459C54.9165 14.7179 54.9681 14.6788 55.0332 14.6508C55.0811 14.6056 55.1425 14.5715 55.1977 14.5312C55.2947 14.4433 55.3991 14.3616 55.4629 14.2921C55.5341 14.2274 55.5845 14.1859 55.5845 14.1859C55.5722 14.1847 55.7085 14.4055 55.6471 14.7654C55.6164 14.9411 55.5317 15.1546 55.3647 15.3328C55.2812 15.4218 55.1891 15.5133 55.0761 15.5768C54.9681 15.6463 54.8441 15.6927 54.7226 15.7305C54.599 15.7647 54.4758 15.7825 54.353 15.7842C54.2327 15.7903 54.1136 15.7695 54.0043 15.75C53.7845 15.7098 53.5967 15.6109 53.4542 15.5109C53.3143 15.4108 53.2087 15.2876 53.1583 15.2022C53.1129 15.1132 53.0908 15.0558 53.0908 15.0558Z" fill="#BA4423"/>
</g>
<g style="mix-blend-mode:multiply" opacity="0.4">
<path d="M20.2091 21.7795C20.2091 21.7795 20.2361 21.8344 20.2693 21.9284C20.3061 22.0199 20.365 22.1224 20.4215 22.2505C20.5492 22.5006 20.7113 22.7849 20.8819 23.002C20.9237 23.0573 20.9671 23.1089 21.0121 23.157C21.0575 23.2033 21.098 23.2582 21.1496 23.2973C21.1975 23.3412 21.2527 23.3766 21.3043 23.4242C21.3632 23.4522 21.4185 23.4974 21.4762 23.5327C21.594 23.5901 21.7095 23.6572 21.7979 23.6901C21.885 23.7316 21.9415 23.7633 21.9415 23.7633C21.939 23.7511 21.7819 23.9585 21.4234 24.0342C21.3334 24.0513 21.2339 24.0586 21.125 24.0561C21.0194 24.0378 20.8967 24.0354 20.7862 23.9817C20.6732 23.9378 20.5541 23.8866 20.4534 23.8048C20.3478 23.7316 20.2594 23.634 20.1796 23.5352C20.1019 23.4327 20.0397 23.3253 19.993 23.2131C19.9427 23.1045 19.9181 22.9874 19.896 22.8788C19.853 22.6604 19.8764 22.4506 19.9169 22.2822C19.9611 22.1151 20.036 21.9723 20.0974 21.8942C20.1637 21.8198 20.2091 21.7795 20.2091 21.7795Z" fill="#BA4423"/>
</g>
<g style="mix-blend-mode:multiply" opacity="0.4">
<path d="M63.1447 21.4427C63.1447 21.4427 63.1925 21.4806 63.2638 21.5501C63.3374 21.6172 63.4356 21.6831 63.5437 21.7734C63.7684 21.9417 64.0397 22.1272 64.289 22.2468C64.3512 22.2785 64.413 22.3061 64.4744 22.3297C64.5357 22.3517 64.5959 22.3834 64.6597 22.3956C64.7224 22.4151 64.7874 22.4212 64.855 22.442C64.92 22.442 64.99 22.4578 65.0576 22.4639C65.1889 22.4639 65.3228 22.4749 65.4161 22.4664C65.5131 22.4651 65.5781 22.4676 65.5781 22.4676C65.5695 22.4578 65.5204 22.7128 65.2319 22.9385C65.0882 23.0471 64.882 23.1484 64.6376 23.1691C64.5149 23.1789 64.386 23.1862 64.2595 23.1557C64.1318 23.135 64.009 23.0861 63.8936 23.0337C63.7794 22.9751 63.6738 22.9068 63.5842 22.8263C63.4909 22.7494 63.4172 22.6543 63.3497 22.5676C63.2146 22.3895 63.1422 22.1919 63.1041 22.0223C63.0698 21.8539 63.0747 21.6916 63.0955 21.5953C63.1213 21.5001 63.1447 21.4427 63.1447 21.4427Z" fill="#BA4423"/>
</g>
<g style="mix-blend-mode:multiply" opacity="0.4">
<path d="M65.75 19.1954C65.75 19.1954 65.8089 19.1784 65.9084 19.1625C66.0054 19.1418 66.1171 19.1015 66.2534 19.0673C66.5235 18.9856 66.8329 18.8758 67.076 18.7452C67.1383 18.7142 67.1972 18.6806 67.2528 18.644C67.3068 18.6074 67.367 18.5781 67.4149 18.533C67.4677 18.4939 67.5106 18.4451 67.5671 18.4036C67.6052 18.3512 67.6592 18.3048 67.7046 18.2536C67.782 18.1486 67.8679 18.0462 67.9158 17.9669C67.9723 17.8875 68.0128 17.8375 68.0128 17.8375C68.0005 17.8375 68.1786 18.0266 68.1933 18.3914C68.1982 18.5708 68.1601 18.7965 68.0325 19.0051C67.9698 19.11 67.8986 19.2174 67.8004 19.3016C67.7083 19.3919 67.5978 19.4626 67.4861 19.5248C67.3719 19.581 67.254 19.6273 67.1349 19.6517C67.0183 19.6822 66.898 19.6859 66.7875 19.6896C66.5628 19.6944 66.359 19.6359 66.1981 19.5675C66.041 19.4968 65.9121 19.398 65.8458 19.3248C65.7831 19.2467 65.75 19.1954 65.75 19.1954Z" fill="#BA4423"/>
</g>
<g style="mix-blend-mode:multiply" opacity="0.4">
<path d="M62.0146 14.4617C62.0146 14.4617 62.0736 14.4446 62.1718 14.4275C62.27 14.4068 62.3805 14.3677 62.518 14.3336C62.7869 14.2518 63.0976 14.1408 63.3407 14.0103C63.4028 13.9793 63.4614 13.946 63.5162 13.9102C63.5703 13.8736 63.6316 13.8431 63.6795 13.7992C63.7323 13.7601 63.7753 13.7113 63.8318 13.6699C63.8698 13.6174 63.9226 13.571 63.9681 13.5198C64.0454 13.4137 64.1314 13.3124 64.1805 13.2319C64.2357 13.1538 64.2762 13.1038 64.2762 13.1038C64.264 13.1038 64.4432 13.2929 64.4579 13.6577C64.4629 13.8358 64.4236 14.0627 64.2971 14.2713C64.2333 14.375 64.1633 14.4836 64.0638 14.5678C63.973 14.6581 63.8612 14.7289 63.7507 14.7899C63.6353 14.8472 63.5187 14.8923 63.3996 14.918C63.2817 14.9485 63.1626 14.9509 63.0509 14.9546C62.8274 14.9594 62.6236 14.9021 62.4628 14.8338C62.3056 14.7618 62.1767 14.6642 62.1092 14.5898C62.0466 14.5129 62.0146 14.4617 62.0146 14.4617Z" fill="#BA4423"/>
</g>
<path opacity="0.4" d="M40.5401 37.6535C40.5401 42.4629 36.6161 46.3622 31.7749 46.3622C26.9338 46.3622 23.0098 42.4629 23.0098 37.6535C23.0098 32.8429 26.9338 28.9424 31.7749 28.9424C36.6161 28.9424 40.5401 32.8429 40.5401 37.6535Z" fill="#B3E3F9"/>
<path d="M40.5401 37.6535C40.5401 42.4629 36.6161 46.3622 31.7749 46.3622C26.9338 46.3622 23.0098 42.4629 23.0098 37.6535C23.0098 32.8429 26.9338 28.9424 31.7749 28.9424C36.6161 28.9424 40.5401 32.8429 40.5401 37.6535Z" stroke="#7F4024" stroke-miterlimit="10"/>
<path opacity="0.4" d="M66.8826 37.6535C66.8826 42.4629 62.9586 46.3622 58.1187 46.3622C53.2775 46.3622 49.3535 42.4629 49.3535 37.6535C49.3535 32.8429 53.2775 28.9424 58.1187 28.9424C62.9586 28.9424 66.8826 32.8429 66.8826 37.6535Z" fill="#B3E3F9"/>
<path d="M66.8826 37.6535C66.8826 42.4629 62.9586 46.3622 58.1187 46.3622C53.2775 46.3622 49.3535 42.4629 49.3535 37.6535C49.3535 32.8429 53.2775 28.9424 58.1187 28.9424C62.9586 28.9424 66.8826 32.8429 66.8826 37.6535Z" stroke="#7F4024" stroke-miterlimit="10"/>
<path d="M49.5604 39.6226C49.5174 38.5062 47.4682 37.6071 44.9402 37.6071C42.4134 37.6071 40.3643 38.5062 40.3213 39.6226" stroke="#7F4024" stroke-linecap="round" stroke-linejoin="round"/>
<path d="M52.2693 46.7232C52.3626 46.4239 52.4245 46.1084 52.4547 45.7765C52.4711 45.6317 52.4801 45.4869 52.4817 45.3422H38.0233C38.0159 45.5015 38.0172 45.6613 38.027 45.8216C38.0352 46.0151 38.0548 46.203 38.0859 46.3853C38.0868 46.3885 38.0871 46.3918 38.0871 46.3951C38.1019 46.4817 38.1154 46.5695 38.135 46.6537C38.1399 46.683 38.1453 46.7118 38.151 46.7403C38.1547 46.7416 38.2455 47.0331 38.2971 47.171C39.1774 49.472 42.0504 50.592 45.2488 50.592C48.5528 50.592 51.3742 49.2719 52.2177 46.8758C52.2226 46.8733 52.2272 46.8709 52.2312 46.8684C52.2444 46.8196 52.257 46.7712 52.2693 46.7232Z" fill="#FEFEFE"/>
<path d="M45.2492 50.2431C42.5235 50.2431 40.0274 49.4915 38.7051 47.958C39.885 49.727 42.44 50.592 45.2492 50.592C48.0706 50.592 50.5409 49.6282 51.7282 47.853C50.4096 49.4037 47.9896 50.2431 45.2492 50.2431Z" fill="#E6E7E8"/>
<path d="M38.0238 45.6716H52.4687C52.4769 45.5618 52.4814 45.452 52.4822 45.3422H38.0238C38.0164 45.4917 38.0157 45.6411 38.0213 45.7899C38.0213 45.7509 38.0222 45.7113 38.0238 45.6716Z" fill="#E6E7E8"/>
<path d="M38.125 46.6001C38.1275 46.6179 38.1306 46.6358 38.1348 46.6538C38.1397 46.6831 38.145 46.7119 38.1508 46.7404C38.1545 46.7416 38.2453 47.0332 38.2969 47.1711C38.3153 47.2174 38.3386 47.2601 38.3583 47.3041C38.9488 47.3602 39.6376 47.1296 39.6376 47.1296C38.7794 47.0405 38.3386 46.7855 38.125 46.6001Z" fill="#BBBDBF"/>
<path d="M52.2314 46.8685C52.2446 46.8197 52.2572 46.7713 52.2695 46.7233C52.2805 46.6867 52.2879 46.6452 52.299 46.6086C52.0804 46.7929 51.6421 47.0418 50.7949 47.1296C50.7949 47.1296 51.4579 47.3504 52.0399 47.3065C52.1062 47.1674 52.1656 47.0238 52.2179 46.8758C52.2228 46.8734 52.2274 46.871 52.2314 46.8685Z" fill="#BBBDBF"/>
<path d="M43.3936 47.4883C43.3936 47.4883 43.6207 47.4334 43.9632 47.3882C44.1339 47.3724 44.3316 47.337 44.5501 47.3492C44.7662 47.3504 44.9983 47.3638 45.2303 47.376C45.455 47.3895 45.6797 47.4004 45.8896 47.4248C45.9952 47.4285 46.0984 47.4566 46.1929 47.4541C46.2895 47.4548 46.3795 47.4553 46.463 47.4553C46.8007 47.4639 47.0389 47.4944 47.0389 47.4944C47.0389 47.4944 46.8228 47.5688 46.4778 47.6408C46.3059 47.6737 46.1021 47.725 45.886 47.714C45.6686 47.7189 45.4366 47.7115 45.2058 47.7054C44.7576 47.681 44.3132 47.592 43.9669 47.5737C43.6232 47.5383 43.3936 47.4883 43.3936 47.4883Z" fill="#BBBDBF"/>
<path d="M35.6871 69.02C35.6871 69.02 38.7198 67.9622 38.489 64.5534C38.3158 61.9986 35.8504 61.9864 34.63 62.1219C31.3666 62.483 26.728 62.5233 22.9206 63.3846C19.0126 64.2667 17.4496 64.3338 17.4361 65.0951C17.4201 65.9552 17.3968 68.9041 18.3471 69.2347C22.0734 70.528 29.1811 71.1648 35.6871 69.02Z" fill="#F7BF9E"/>
<g style="mix-blend-mode:multiply" opacity="0.7">
<path d="M23.4995 63.2626C27.1902 62.5196 31.5292 62.4647 34.6306 62.1219C35.851 61.9864 38.3164 61.9986 38.4895 64.5534C38.7203 67.9622 35.6877 69.02 35.6877 69.02C31.2026 70.4999 26.4326 70.6549 22.6818 70.1851C22.1747 67.8268 22.4166 65.3464 23.4995 63.2626Z" fill="#F6B499"/>
</g>
<path d="M39.6449 64.3984C39.9138 68.3537 36.3938 69.5811 36.3938 69.5811C32.7288 70.7902 28.9018 71.2331 25.437 71.2026C22.6794 68.8686 24.3295 63.1076 24.3406 62.5451C28.0976 62.0107 32.1407 61.9119 35.1672 61.5764C36.5828 61.4202 39.446 61.4324 39.6449 64.3984Z" fill="#F2F2F3"/>
<path d="M17.2842 68.9284C17.2842 68.9284 19.132 69.9435 20.3696 68.078C21.299 66.6786 19.6943 65.0255 18.7833 64.4704C16.3498 62.9868 10.6516 59.0778 7.34399 57.6711C5.9173 57.0659 4.90683 59.3742 5.43723 60.0294C7.5171 62.5964 11.8438 66.7018 17.2842 68.9284Z" fill="#F7BF9E"/>
<path d="M7.60305 58.3518C8.13713 57.7503 7.36116 55.6079 7.30714 55.3224C7.26048 55.0675 6.97196 54.383 6.83568 54.1732C6.78411 54.0939 6.65765 54.0658 6.514 54.1866C5.95167 54.6612 6.26107 55.9325 6.22792 55.9715C5.89397 55.8068 5.55755 55.298 5.53422 55.2919C5.01364 54.5819 4.03019 53.2508 3.65939 52.6811C3.50592 52.4468 3.20511 52.2565 3.0234 52.3773C2.89203 52.4639 2.7803 52.736 2.95956 53.0129C3.61274 54.0133 4.50288 55.5945 4.47587 55.6128C3.84847 54.9991 2.65138 53.8352 2.19096 53.3326C2.00188 53.1276 1.67159 52.9861 1.50707 53.1288C1.38798 53.2325 1.31678 53.5143 1.53899 53.7571C2.03748 54.3281 3.59309 56.3473 3.54398 56.3985C2.7938 55.8678 1.70107 55.0931 1.23697 54.7234C1.0172 54.5489 0.663596 54.4574 0.518717 54.6209C0.414355 54.738 0.383661 55.0235 0.642724 55.2285C1.17681 55.6738 2.16395 56.551 2.95464 57.1842C2.93009 57.2269 1.21364 56.5437 0.570275 56.2277C0.313668 56.1021 0.0865313 56.218 0.0226863 56.3326C-0.0669421 56.4937 0.123362 56.7279 0.341908 56.8341C0.887045 57.1013 2.22778 57.8504 2.87237 58.2103C3.16704 58.5946 3.96878 59.2815 4.28555 59.5133C4.79263 59.8854 5.07012 59.9916 5.36847 59.9635L5.97009 59.9391C5.97009 59.9391 7.16718 59.556 7.60305 58.3518Z" fill="#F7BF9E"/>
</g>
<defs>
<clipPath id="clip0_5_918">
<rect width="76" height="112" fill="white"/>
</clipPath>
</defs>
</svg>
