<svg width="145" height="255" viewBox="0 0 145 255" fill="none" xmlns="http://www.w3.org/2000/svg">
<g clip-path="url(#clip0_5_1088)">
<path d="M133.96 131.23C134.51 131.12 134.87 130.6 134.78 130.06L134.51 128.53C134.68 128.6 138.2 134.93 138.2 134.93C138.44 135.4 139.04 135.58 139.53 135.33C140.02 135.08 140.22 134.49 139.98 134.01L137.31 128.76L140.87 134.43C141.17 134.91 141.8 135.06 142.29 134.76C142.77 134.47 142.92 133.83 142.63 133.35L138.98 127.55L142.37 132.23C142.66 132.66 143.25 132.76 143.7 132.46C144.14 132.16 144.27 131.57 143.98 131.14L140.22 125.92L140.23 125.91L143.09 129.37C143.38 129.76 143.79 129.92 144.23 129.6C144.66 129.28 144.68 128.85 144.39 128.46L141.95 124.96C141.69 124.5 140.66 122.09 138.3 120.45C136.42 119.15 136.38 119.12 135.8 118.14L131.87 120.4C131.87 120.4 132.48 121.22 132.4 121.57C131.5 125.25 132.27 127.49 132.29 127.6L132.79 130.46C132.89 130.99 133.41 131.34 133.96 131.23Z" fill="#F8AFA0"/>
<path d="M131.84 122.13L130.86 120.64L136.69 117.22L137.49 118.74L131.84 122.13Z" fill="#D8DDE0"/>
<path d="M10.71 49.73C10.2 49.95 9.93994 50.54 10.14 51.04L10.72 52.49C10.54 52.46 5.79994 46.98 5.79994 46.98C5.46994 46.56 4.84994 46.5 4.41994 46.85C3.98994 47.19 3.90994 47.81 4.24994 48.23L7.92993 52.84L3.28993 48C2.89993 47.59 2.24994 47.57 1.82994 47.96C1.41994 48.35 1.39993 49 1.78993 49.41L6.53993 54.36L2.26994 50.46C1.89994 50.1 1.28994 50.12 0.919934 50.5C0.549934 50.89 0.539934 51.49 0.919934 51.85L5.65994 56.21L5.64993 56.22L2.14993 53.41C1.77993 53.09 1.33993 53.02 0.979932 53.41C0.619932 53.81 0.699934 54.24 1.05994 54.56L4.15994 57.49C4.50994 57.89 5.99993 60.04 8.64993 61.17C10.75 62.06 10.8 62.08 11.56 62.92L14.95 59.91C14.95 59.91 14.19 59.23 14.2 58.88C14.33 55.09 13.12 53.05 13.08 52.95L12.01 50.25C11.81 49.75 11.22 49.51 10.71 49.73Z" fill="#F8AFA0"/>
<path d="M14.8204 58.24L16.1304 59.45L11.2804 64.16L10.1504 62.88L14.8204 58.24Z" fill="#D8DDE0"/>
<path d="M76.6299 245.87H68.3799V238.22H76.6299V245.87Z" fill="#C2C5C7"/>
<path d="M68.1303 240.84C68.1303 240.84 58.1503 249.17 51.1903 249.5C47.1703 249.68 46.7003 257.72 63.6503 253.7C66.0603 253.13 67.7603 251.85 67.7603 251.85L67.8103 253.12L76.6303 252.94V243.78C76.6303 243.78 71.2303 244.55 68.1303 240.84Z" fill="#313241"/>
<path d="M67.7803 252.25L67.8103 253.12L76.6303 252.94V252.13C74.0803 252.12 70.3303 252.14 67.7803 252.25Z" fill="#21212F"/>
<path d="M91.25 245.87H99.49V238.22H91.25V245.87Z" fill="#C2C5C7"/>
<path d="M99.74 240.84C99.74 240.84 109.73 249.17 116.69 249.5C120.71 249.68 121.18 257.72 104.23 253.7C101.81 253.13 100.11 251.85 100.11 251.85L100.07 253.12L91.25 252.94V243.78C91.25 243.78 96.65 244.55 99.74 240.84Z" fill="#313241"/>
<path d="M100.1 252.25L100.07 253.12L91.25 252.94V252.13C93.8 252.12 97.55 252.14 100.1 252.25Z" fill="#21212F"/>
<path d="M107.21 72.17C106.39 63.5 105.3 56.89 103.68 54.69C100.03 49.75 71.4101 50.58 66.9401 55.22C65.1601 57.07 63.8201 64.04 62.8301 72.69L107.21 72.17Z" fill="#D8DDE0"/>
<path d="M60.1504 117.17L64.7104 242.23L78.1304 242.14L86.6504 117.12L60.1504 117.17Z" fill="#4C4D60"/>
<path d="M109.27 116.75L103.12 241.96L89.3697 242.05L86.5097 156.13L80.4697 116.7L109.27 116.75Z" fill="#4C4D60"/>
<path d="M73.8797 55.69C71.8597 53.38 68.3497 53.14 66.0397 55.16L38.2997 79.39L16.3497 58.75L10.4297 64.27L33.8997 90.91C34.9897 92.06 36.4597 92.65 37.9297 92.65C39.2297 92.65 40.5397 92.19 41.5897 91.27L73.3497 63.53C75.6597 61.52 75.8997 58 73.8797 55.69Z" fill="#5AC0D8"/>
<g style="mix-blend-mode:multiply">
<path d="M49.3197 82.75C47.8997 83.85 46.4097 84.84 44.7997 85.65C43.3897 86.37 41.9897 87.26 40.4697 87.73C37.4497 88.66 34.7797 87.82 32.4897 85.73C26.8997 80.63 21.6197 75.03 16.3897 69.55C15.1097 68.2 12.6197 65.9 13.3697 63.77C13.9997 61.96 15.2597 60.4 16.8997 59.27L16.3497 58.75L10.4297 64.27L33.8997 90.91C34.9897 92.06 36.4597 92.65 37.9297 92.65C39.2297 92.65 40.5397 92.19 41.5897 91.27L61.5997 73.8C60.6897 74.35 50.7497 81.64 49.3197 82.75Z" fill="#DADEE8"/>
</g>
<path d="M130.46 121.06L105.95 72.58L99.0397 63.61C93.3597 59.14 93.9897 53.79 96.9997 53.21C101.14 52.41 104.15 53.74 107.09 57.01C118.8 70.06 137.44 117 137.44 117C137.73 117.68 130.97 121.57 130.46 121.06Z" fill="#5AC0D8"/>
<g style="mix-blend-mode:multiply">
<path d="M136.73 115.25C135.33 115.96 134 116.83 132.43 117.15C130.99 117.44 130.25 116.48 129.69 115.29C127.46 110.61 126.17 104.9 124.05 100.16C121.65 94.79 118.67 89.6 115.57 84.59C112.89 80.27 110.4 76.69 106.41 73.49L130.46 121.06C130.97 121.57 137.73 117.68 137.44 117C137.44 117 137.19 116.37 136.73 115.25Z" fill="#DADEE8"/>
</g>
<path d="M90.8097 53.0499C89.1997 54.1599 83.1297 54.2699 81.6897 53.0499C79.2897 51.0099 81.6897 42.5699 81.6897 42.5699H90.8097C90.8097 42.5699 93.5097 51.1999 90.8097 53.0499Z" fill="#F8AFA0"/>
<path d="M97.4704 39.47C95.0104 43.49 86.7503 47.2899 83.1703 47.2599C79.8003 47.2399 72.9003 43.18 70.8503 39.29C67.2203 32.44 65.5004 11.5999 71.9604 6.45995C78.9104 0.929948 91.1404 1.33995 96.1904 6.15995C102.35 12.0699 100.91 33.84 97.4704 39.47Z" fill="#F8AFA0"/>
<g style="mix-blend-mode:multiply">
<path d="M97.8602 8.47998C98.7102 12.1 98.5702 15.88 98.5502 19.65C98.5102 24.94 99.0502 29.87 97.5202 34.93C96.1702 39.38 91.4502 41.97 87.4702 44.04C85.4402 45.11 83.2802 45.94 80.9402 45.82C79.6702 45.75 78.4402 45.51 77.2402 45.16C79.4202 46.42 81.6602 47.25 83.1702 47.26C86.7502 47.29 95.0102 43.49 97.4702 39.47C100.55 34.42 102.03 16.42 97.8602 8.47998Z" fill="#FBD9D6"/>
</g>
<path d="M85.93 52.61L88.92 57.85L85.98 63.29L83.04 57.98L85.93 52.61Z" fill="#4E90CC"/>
<path d="M80.6099 48.91L85.9299 52.61L82.0599 60.71L76.1699 52.15L80.6099 48.91Z" fill="#C2C5C7"/>
<path d="M92.0097 48.71L85.9297 52.61L89.4497 60.49L95.1897 51.9L92.0097 48.71Z" fill="#C2C5C7"/>
<path d="M84.6795 60.9399L82.7695 74.1099H89.2695L87.2095 60.9699L84.6795 60.9399Z" fill="#4E90CC"/>
<path d="M103.68 54.6901C102.65 53.3001 99.0804 52.3301 95.1904 51.8101C95.1904 51.8101 87.0504 69.7901 85.8004 69.7901C84.3104 69.7901 77.8304 55.3701 76.1704 52.1501C72.0004 52.8001 68.2404 53.8701 66.9404 55.2201C61.3304 61.0401 60.1504 117.49 60.1504 117.49C60.1504 117.49 72.0204 118.73 85.7104 118.73C98.0004 118.73 109.29 116.94 109.29 116.94C109.29 116.94 107.3 90.8201 105.69 72.4401C104.85 62.9501 105.41 57.0301 103.68 54.6901Z" fill="#5AC0D8"/>
<g style="mix-blend-mode:multiply">
<path d="M105.69 72.44C105.6 71.47 104.95 70.97 104.38 72.81C103.1 76.96 101.83 92.01 102.01 96.42C102.15 99.65 102.5 102.98 102.38 106.22C102.3 108.61 101.79 110.73 99.4804 111.84C97.2004 112.94 89.8604 112.82 87.4104 112.86C72.6804 113.15 61.5804 113.44 60.2604 113.22C60.1804 115.9 60.1504 117.49 60.1504 117.49C60.1504 117.49 72.0204 118.73 85.7104 118.73C98.0004 118.73 109.29 116.94 109.29 116.94C109.29 116.94 107.3 90.82 105.69 72.44Z" fill="#DADEE8"/>
</g>
<path d="M109.13 118.93C84.48 122.73 65.27 120.15 60.21 119.33L60.32 123.12C63.8 123.67 71.68 124.69 82.7 124.69C90.3 124.69 99.12 124.18 108.95 122.69L109.13 118.93Z" fill="#313241"/>
<path d="M80.3896 120.13V125.65H88.8896V120.13H80.3896ZM87.7997 124.65H81.4896V123.27H82.8697V122.13H81.4896V121.04H87.7997V124.65Z" fill="#FED36A"/>
<path d="M72.8701 124.71H69.3301V120.04H72.8701V124.71Z" fill="#4C4D60"/>
<path d="M99.25 124.31H95.71V119.64H99.25V124.31Z" fill="#4C4D60"/>
<g style="mix-blend-mode:multiply">
<path d="M72.6299 17.03C72.6299 17.03 82.0599 14.81 86.5199 16.32C88.4066 16.9667 90.0999 17.3633 91.5999 17.51C93.6299 17.7 95.3299 17.41 96.7599 16.59C96.7599 16.59 86.3399 12.05 78.4999 13.38C78.4999 13.38 74.4099 12.58 72.6299 17.03Z" fill="#FBD9D6"/>
</g>
<path d="M66.5495 15.07C72.2195 18.26 80.4395 10.47 91.6595 16.28C101.24 21.23 98.3595 8.95996 98.3595 8.95996C98.3595 8.95996 95.2195 0.0999596 79.2095 1.58996C69.6095 2.47996 67.6195 3.15996 63.6895 0.249963C62.1795 -0.870037 63.7395 6.71996 67.5395 6.82996C67.5395 6.82996 65.3595 9.23996 62.2295 7.10996C59.1095 4.98996 63.3395 13.27 66.5495 15.07Z" fill="#151523"/>
<path d="M93.9202 10.95C93.9202 10.95 92.4002 14.99 95.6702 18.96C96.5102 19.99 97.6302 21.15 98.0102 23.77C98.1402 24.65 99.3802 27.94 100.19 28.07C100.19 28.07 102.5 15.24 97.7402 7.85999L93.9202 10.95Z" fill="#151523"/>
<path d="M74.4797 11.96C74.4797 11.96 75.9997 15.99 72.7397 19.96C71.8897 20.99 70.7697 22.16 70.3897 24.77C70.2597 25.65 68.8897 28.7 68.0797 28.83C68.0797 28.83 65.4597 16.22 70.2197 8.83997L74.4797 11.96Z" fill="#151523"/>
<path d="M70.4104 29.95C69.8704 32.75 71.1204 34.29 69.3604 33.89C67.9104 33.55 66.6504 32.36 66.6504 29.95C66.6504 27.54 67.8004 26.22 69.2804 26.22C70.7604 26.22 71.0104 26.8 70.4104 29.95Z" fill="#F8AFA0"/>
<g style="mix-blend-mode:multiply">
<path d="M69.7804 33.2C68.3404 32.86 67.0704 31.67 67.0704 29.26C67.0771 28.3933 67.2138 27.6733 67.4804 27.1C66.9704 27.73 66.6504 28.69 66.6504 29.95C66.6504 32.36 67.9104 33.55 69.3604 33.89C70.1804 34.08 70.3404 33.84 70.3404 33.25C70.2071 33.27 70.0204 33.2533 69.7804 33.2Z" fill="#FBD9D6"/>
</g>
<path d="M97.7499 29.5C98.2899 32.3 97.0399 33.85 98.7999 33.44C100.25 33.1 101.51 31.92 101.51 29.5C101.51 27.09 100.36 25.77 98.8799 25.77C97.3999 25.77 97.1499 26.35 97.7499 29.5Z" fill="#F8AFA0"/>
<g style="mix-blend-mode:multiply">
<path d="M98.3803 32.75C99.8203 32.41 101.09 31.23 101.09 28.81C101.083 27.95 100.947 27.2333 100.68 26.66C101.19 27.29 101.51 28.24 101.51 29.5C101.51 31.92 100.25 33.1 98.8003 33.44C97.9803 33.63 97.8203 33.39 97.8203 32.81C97.9536 32.8233 98.1403 32.8033 98.3803 32.75Z" fill="#FBD9D6"/>
</g>
<g style="mix-blend-mode:multiply">
<path d="M84.4903 148.84C84.4303 146.27 84.3803 144.82 84.3803 144.82C80.4603 148.73 77.2603 189.16 77.2603 189.16C74.8803 232.8 67.5603 237.22 64.5303 237.11L64.5403 237.63C71.9203 242.32 76.1203 240.19 78.5003 236.66L84.4903 148.84Z" fill="#B8BDD0"/>
</g>
<g style="mix-blend-mode:multiply">
<path d="M103.42 235.99C93.0705 234.07 94.8205 222.57 93.1105 188.8C91.3305 153.72 85.0906 145.17 85.0906 145.17L84.8105 145.03L86.5106 156.12L89.3306 240.81H103.18L103.42 235.99Z" fill="#B8BDD0"/>
</g>
<path d="M88.9102 235.29L89.1102 242.05L103.38 241.96L103.7 235.2L88.9102 235.29Z" fill="#706C85"/>
<path d="M64.29 235.25L64.5201 242.23L78.3201 242.14L78.75 235.38L64.29 235.25Z" fill="#706C85"/>
<path d="M91.2096 27.43C91.2096 28.82 90.4697 29.95 89.5497 29.95C88.6297 29.95 87.8896 28.82 87.8896 27.43C87.8896 26.03 88.6297 24.9 89.5497 24.9C90.4697 24.9 91.2096 26.03 91.2096 27.43Z" fill="#21212F"/>
<path d="M90.6497 26.4C90.6497 26.79 90.4397 27.11 90.1797 27.11C89.9297 27.11 89.7197 26.79 89.7197 26.4C89.7197 26.01 89.9297 25.7 90.1797 25.7C90.4397 25.7 90.6497 26.01 90.6497 26.4Z" fill="#FEFEFE"/>
<path d="M78.9196 27.43C78.9196 28.82 78.1796 29.95 77.2596 29.95C76.3396 29.95 75.5996 28.82 75.5996 27.43C75.5996 26.03 76.3396 24.9 77.2596 24.9C78.1796 24.9 78.9196 26.03 78.9196 27.43Z" fill="#21212F"/>
<path d="M78.22 26.37C78.22 26.76 78.01 27.08 77.76 27.08C77.5 27.08 77.29 26.76 77.29 26.37C77.29 25.98 77.5 25.66 77.76 25.66C78.01 25.66 78.22 25.98 78.22 26.37Z" fill="#FEFEFE"/>
<path d="M87.0602 22.61L86.7002 21.72C86.7002 21.72 89.3202 21.37 92.5202 22.64C95.1002 23.67 89.2902 22.41 87.0602 22.61Z" fill="#21212F"/>
<path d="M80.0697 22.7L80.4397 21.8C80.4397 21.8 77.8097 21.46 74.6097 22.73C72.0297 23.76 77.8397 22.5 80.0697 22.7Z" fill="#21212F"/>
<path d="M81.84 28.65C82.21 29.79 82.36 30.98 82.33 32.16C82.3167 32.76 82.2334 33.3533 82.08 33.94C81.93 34.51 81.67 35.08 81.29 35.55C81.55 35.01 81.69 34.45 81.79 33.88C81.89 33.3067 81.9467 32.73 81.9601 32.15C81.9901 30.99 81.92 29.83 81.84 28.65Z" fill="#EA9181"/>
<path d="M81.4004 35.78C81.9704 36.05 82.4304 36.23 82.9104 36.27C83.3904 36.32 83.8904 36.2 84.5304 36.1C84.2204 36.61 83.5604 36.96 82.8504 36.91C82.1404 36.85 81.5304 36.37 81.4004 35.78Z" fill="#EA9181"/>
<path d="M82.0898 42.3101C82.3998 42.4701 82.6498 42.5801 82.9098 42.6001C83.1598 42.6301 83.4298 42.5601 83.7798 42.5001C83.6098 42.8001 83.2498 43.0001 82.8698 42.9701C82.4898 42.9301 82.1598 42.6601 82.0898 42.3101Z" fill="#EA9181"/>
<path d="M86.8302 39.2001C86.5402 39.8701 85.9202 40.3601 85.2602 40.6601C84.5902 40.9701 83.8502 41.0901 83.1102 41.1001C82.3802 41.0701 81.6402 40.9301 80.9802 40.6001C80.3302 40.2701 79.7202 39.7501 79.4902 39.0601C79.8802 39.6501 80.4802 40.0401 81.1202 40.2901C81.7602 40.5368 82.4269 40.6568 83.1202 40.6501C83.8069 40.6701 84.4769 40.5701 85.1302 40.3501C85.7802 40.1201 86.3902 39.7601 86.8302 39.2001Z" fill="#21212F"/>
</g>
<defs>
<clipPath id="clip0_5_1088">
<rect width="145" height="255" fill="white"/>
</clipPath>
</defs>
</svg>
